M48
; DRILL file {KiCad 5.1.1} date Fri 19 Apr 2019 10:33:08 BST
; FORMAT={-:-/ absolute / inch / decimal}
; #@! TF.CreationDate,2019-04-19T10:33:08+01:00
; #@! TF.GenerationSoftware,Kicad,Pcbnew,5.1.1
; #@! TF.FileFunction,Plated,1,8,PTH
FMAT,2
INCH
T1C0.0079
T2C0.0118
T3C0.0197
T4C0.0236
T5C0.0276
T6C0.0350
T7C0.0354
T8C0.0394
T9C0.0406
T10C0.0618
T11C0.0906
T12C0.1252
T13C0.1260
%
G90
G05
T1
X1.8567Y-2.0406
X1.8598Y-1.9217
X1.8614Y-2.1382
X1.9827Y-2.0307
X1.9846Y-1.9303
X1.985Y-2.1476
X2.0413Y-1.7224
X2.0531Y-3.7157
X2.0559Y-3.6567
X2.0575Y-3.5984
X2.0591Y-3.5382
X2.0646Y-3.422
X2.065Y-3.3823
X2.0961Y-3.2051
X2.0965Y-2.2835
X2.0965Y-2.3917
X2.0965Y-3.5039
X2.0972Y-3.563
X2.0972Y-3.6815
X2.1161Y-2.1063
X2.1189Y-2.0587
X2.1209Y-3.2063
X2.126Y-3.0512
X2.126Y-3.1299
X2.1264Y-2.0142
X2.1287Y-3.315
X2.1555Y-2.3228
X2.1555Y-3.1335
X2.1626Y-3.2409
X2.1654Y-1.3189
X2.1654Y-1.437
X2.1654Y-1.5945
X2.1654Y-1.7224
X2.185Y-3.4449
X2.185Y-3.5039
X2.1854Y-3.563
X2.189Y-3.7402
X2.1917Y-3.6811
X2.1949Y-2.4606
X2.1949Y-2.5197
X2.1961Y-1.8252
X2.1969Y-2.0185
X2.2016Y-1.7795
X2.2047Y-3.1102
X2.2146Y-3.4744
X2.2244Y-3.2677
X2.2266Y-3.0897
X2.2268Y-3.1646
X2.2276Y-3.2094
X2.2291Y-3.187
X2.2343Y-2.4606
X2.2343Y-3.0217
X2.2343Y-3.4449
X2.2343Y-3.5039
X2.2343Y-3.563
X2.2343Y-3.622
X2.2343Y-3.6811
X2.2343Y-3.9567
X2.2441Y-2.9134
X2.2539Y-2.628
X2.2539Y-3.4744
X2.2618Y-2.2484
X2.2638Y-1.2205
X2.2638Y-2.0197
X2.2638Y-3.3071
X2.2638Y-3.7402
X2.2736Y-2.5197
X2.2736Y-3.5039
X2.2736Y-3.563
X2.2736Y-3.6811
X2.2835Y-3.3465
X2.2835Y-3.6319
X2.2933Y-2.1555
X2.2933Y-2.2343
X2.2945Y-1.989
X2.298Y-2.0425
X2.3031Y-2.0866
X2.3031Y-2.3819
X2.313Y-2.0177
X2.313Y-2.628
X2.313Y-2.6969
X2.3189Y-3.752
X2.3228Y-1.7224
X2.3228Y-2.4508
X2.3228Y-2.9921
X2.3228Y-3.6811
X2.328Y-1.9937
X2.3303Y-1.9228
X2.3335Y-2.0953
X2.3339Y-2.2346
X2.3358Y-2.0378
X2.3374Y-2.1236
X2.3386Y-2.1555
X2.3394Y-2.1768
X2.3394Y-2.1988
X2.3425Y-3.3465
X2.3425Y-3.435
X2.3425Y-3.9567
X2.3622Y-1.378
X2.3622Y-2.2638
X2.3622Y-2.7854
X2.3622Y-2.8839
X2.372Y-2.4114
X2.372Y-2.5197
X2.372Y-2.628
X2.372Y-2.6969
X2.3732Y-1.8854
X2.3819Y-1.122
X2.3819Y-3.7106
X2.3819Y-3.7717
X2.3998Y-1.8026
X2.4016Y-3.3071
X2.4028Y-1.6236
X2.4114Y-2.4508
X2.4114Y-3.2157
X2.4114Y-3.2413
X2.4146Y-1.8913
X2.4173Y-2.2008
X2.4213Y-2.628
X2.4213Y-2.6969
X2.4213Y-2.7854
X2.4213Y-2.8839
X2.4311Y-3.1004
X2.4311Y-3.3465
X2.4311Y-3.9567
X2.4366Y-3.5925
X2.437Y-1.9996
X2.4386Y-2.098
X2.4402Y-2.05
X2.4409Y-3.0217
X2.4421Y-3.652
X2.4445Y-3.7697
X2.4469Y-1.9433
X2.4496Y-2.35
X2.4496Y-3.1717
X2.4606Y-2.0276
X2.4709Y-2.3488
X2.472Y-1.5984
X2.4736Y-2.4323
X2.4787Y-2.9354
X2.4835Y-1.9449
X2.4854Y-1.7807
X2.4902Y-2.3496
X2.4929Y-2.9496
X2.5079Y-1.7205
X2.5098Y-2.0669
X2.5098Y-2.9823
X2.5114Y-2.3469
X2.5205Y-3.189
X2.5217Y-1.7839
X2.5287Y-2.2709
X2.5295Y-2.628
X2.5295Y-2.7559
X2.5295Y-2.8642
X2.5295Y-3.248
X2.5295Y-3.2972
X2.5315Y-1.313
X2.5394Y-3.0906
X2.5492Y-1.565
X2.5492Y-1.9685
X2.5492Y-2.9528
X2.5646Y-3.2669
X2.5689Y-2.2146
X2.5689Y-2.2539
X2.5689Y-3.3465
X2.5709Y-4.0421
X2.5787Y-1.9291
X2.5787Y-2.0079
X2.5787Y-2.0768
X2.5787Y-3.1693
X2.602Y-1.3417
X2.6024Y-1.8268
X2.6028Y-1.385
X2.6035Y-1.4287
X2.6039Y-3.2882
X2.6075Y-2.348
X2.6083Y-3.2087
X2.6086Y-2.9925
X2.6091Y-1.7358
X2.6181Y-1.4961
X2.6181Y-2.2146
X2.6181Y-2.9528
X2.6228Y-3.0067
X2.626Y-1.8276
X2.628Y-1.9685
X2.628Y-2.0472
X2.628Y-2.1063
X2.628Y-2.3819
X2.628Y-2.7559
X2.628Y-2.815
X2.628Y-3.0315
X2.628Y-3.9323
X2.6378Y-2.2539
X2.6378Y-2.628
X2.6378Y-3.9567
X2.6461Y-1.8276
X2.6476Y-1.2205
X2.6476Y-1.6858
X2.6524Y-3.9102
X2.6539Y-3.2961
X2.6575Y-3.0118
X2.6657Y-3.9323
X2.6665Y-1.8272
X2.6673Y-1.2205
X2.6673Y-2.0768
X2.6673Y-2.2146
X2.6685Y-2.8803
X2.6689Y-2.9429
X2.6772Y-1.3583
X2.6866Y-1.8268
X2.6866Y-3.9217
X2.6969Y-1.6339
X2.6969Y-3.0512
X2.6969Y-3.0906
X2.6969Y-3.1693
X2.6969Y-3.3366
X2.6992Y-1.4921
X2.6996Y-3.2043
X2.7079Y-1.8976
X2.7087Y-2.7516
X2.7094Y-3.922
X2.7157Y-3.2756
X2.7165Y-1.7913
X2.7165Y-1.9291
X2.7165Y-3.3169
X2.7205Y-3.1362
X2.7256Y-2.3449
X2.7272Y-3.9315
X2.7362Y-1.9685
X2.7429Y-3.1232
X2.7445Y-3.0386
X2.7449Y-2.7925
X2.7449Y-3.3488
X2.7461Y-1.2205
X2.7461Y-1.3091
X2.7461Y-1.4075
X2.7461Y-3.9567
X2.7559Y-1.8307
X2.7559Y-2.3917
X2.7606Y-2.7449
X2.7657Y-2.7909
X2.7657Y-3.1693
X2.7657Y-3.3496
X2.7669Y-3.1327
X2.7756Y-1.5157
X2.7756Y-1.9291
X2.7756Y-2.628
X2.7756Y-2.6772
X2.7811Y-2.1142
X2.7823Y-3.911
X2.7858Y-3.1181
X2.7953Y-1.6929
X2.7953Y-2.3917
X2.7953Y-2.7264
X2.8035Y-3.1075
X2.8035Y-3.9102
X2.8051Y-1.2205
X2.8051Y-1.3091
X2.8051Y-1.4075
X2.815Y-1.6339
X2.8201Y-1.8752
X2.8236Y-3.1083
X2.8252Y-3.8957
X2.8346Y-2.4213
X2.8358Y-2.637
X2.8366Y-2.689
X2.8435Y-3.0402
X2.8441Y-2.7902
X2.8445Y-2.5
X2.8535Y-1.5843
X2.8543Y-2.5787
X2.8543Y-3.1693
X2.8543Y-3.2677
X2.8583Y-2.0551
X2.8642Y-1.2205
X2.8642Y-1.3091
X2.8642Y-3.0386
X2.8646Y-3.8024
X2.8661Y-1.9409
X2.8681Y-1.978
X2.8693Y-2.7898
X2.8697Y-1.998
X2.8697Y-2.2012
X2.8709Y-2.0189
X2.874Y-1.3976
X2.874Y-1.6929
X2.8799Y-2.1354
X2.8811Y-2.0795
X2.8827Y-1.9591
X2.8917Y-3.8776
X2.8937Y-2.1165
X2.9008Y-4.4756
X2.9043Y-4.1051
X2.9051Y-4.202
X2.9071Y-2.2642
X2.9094Y-1.9819
X2.9134Y-1.8898
X2.9209Y-2.2335
X2.9232Y-1.2205
X2.9232Y-1.3091
X2.9232Y-2.5
X2.9232Y-3.0118
X2.9236Y-4.6067
X2.9279Y-4.359
X2.9323Y-3.8724
X2.9331Y-2.8051
X2.9398Y-3.0575
X2.9421Y-4.3732
X2.9429Y-3.1693
X2.9429Y-3.2677
X2.9429Y-3.376
X2.9429Y-3.4154
X2.95Y-4.2781
X2.95Y-4.2982
X2.9528Y-3.0807
X2.9528Y-3.9567
X2.9606Y-2.9039
X2.9606Y-2.9433
X2.9606Y-2.9839
X2.9626Y-3.8555
X2.9646Y-2.726
X2.9724Y-2.5295
X2.9748Y-2.9626
X2.9756Y-2.9232
X2.976Y-2.8457
X2.9764Y-2.8862
X2.9772Y-3.3024
X2.9823Y-1.2205
X2.9823Y-1.3091
X2.9823Y-1.7913
X2.9823Y-1.9488
X2.9823Y-3.0413
X2.9878Y-3.4748
X2.9878Y-4.1862
X2.9898Y-2.8642
X2.9906Y-3.7504
X2.9921Y-2.8051
X2.9921Y-3.5138
X2.9921Y-3.6701
X2.9925Y-3.5547
X2.9925Y-3.5921
X2.9929Y-3.6327
X2.9929Y-3.711
X2.9976Y-4.3756
X2.9976Y-2.1063
X3.0012Y-2.1374
X3.002Y-2.2638
X3.002Y-2.5787
X3.002Y-3.376
X3.002Y-3.4154
X3.002Y-3.7894
X3.0047Y-3.1827
X3.0079Y-3.7307
X3.0087Y-3.6909
X3.0091Y-3.5732
X3.0091Y-3.6516
X3.0094Y-3.5343
X3.0098Y-3.6126
X3.0102Y-3.4929
X3.0118Y-4.3898
X3.0217Y-2.7362
X3.0217Y-3.0118
X3.0217Y-3.0807
X3.0217Y-3.2677
X3.0217Y-4.4309
X3.0217Y-4.451
X3.026Y-2.7854
X3.0276Y-2.6984
X3.0287Y-4.0343
X3.0315Y-3.4744
X3.0362Y-3.2516
X3.0413Y-1.2205
X3.0413Y-2.5295
X3.0429Y-1.585
X3.0512Y-1.3386
X3.061Y-3.6319
X3.061Y-3.9567
X3.0654Y-2.6807
X3.0709Y-2.1949
X3.0709Y-2.2638
X3.0709Y-3.0413
X3.0748Y-1.5669
X3.076Y-2.5445
X3.0787Y-3.25
X3.0807Y-3.7697
X3.0906Y-1.8307
X3.0906Y-1.8996
X3.0906Y-1.9882
X3.0906Y-3.3071
X3.0913Y-2.8283
X3.1004Y-1.2205
X3.1004Y-1.2795
X3.1004Y-3.3661
X3.1083Y-3.3996
X3.1087Y-3.4354
X3.1102Y-2.5689
X3.1102Y-2.628
X3.1102Y-2.687
X3.1102Y-2.7362
X3.1102Y-3.0118
X3.1102Y-3.0807
X3.1106Y-3.4677
X3.1142Y-1.6102
X3.1201Y-1.7618
X3.1201Y-3.1693
X3.1201Y-3.3071
X3.1256Y-3.4161
X3.1276Y-3.4528
X3.1299Y-3.937
X3.1417Y-1.4843
X3.1496Y-3.6319
X3.1594Y-1.2205
X3.1685Y-4.072
X3.1693Y-1.2795
X3.1693Y-1.6142
X3.1732Y-1.4567
X3.1791Y-1.9882
X3.1988Y-1.7323
X3.1988Y-1.8307
X3.1988Y-3.8976
X3.2185Y-1.2205
X3.2205Y-3.9535
X3.2244Y-1.563
X3.2579Y-3.8287
X3.2677Y-1.9882
X3.2677Y-2.628
X3.2677Y-2.6772
X3.2677Y-4.5394
X3.2685Y-2.4854
X3.2692Y-3.1464
X3.2776Y-1.2205
X3.2776Y-3.1693
X3.2874Y-3.2913
X3.2878Y-3.1402
X3.2902Y-4.1701
X3.2913Y-3.2638
X3.2929Y-4.228
X3.2953Y-2.8307
X3.2957Y-4.3858
X3.2969Y-4.3264
X3.2972Y-2.7362
X3.2972Y-3.2087
X3.2976Y-3.0807
X3.2992Y-2.8031
X3.3047Y-3.0583
X3.3157Y-4.5079
X3.3169Y-2.7559
X3.3189Y-2.4136
X3.3299Y-3.1287
X3.3303Y-3.0598
X3.3366Y-1.2205
X3.3366Y-2.815
X3.3374Y-3.2642
X3.3492Y-3.1646
X3.3587Y-4.2472
X3.3598Y-4.2827
X3.3661Y-2.4902
X3.376Y-2.7756
X3.3839Y-2.3811
X3.3839Y-2.6319
X3.3957Y-1.2205
X3.3957Y-1.7028
X3.4008Y-2.6126
X3.4126Y-4.4421
X3.4154Y-1.2205
X3.4154Y-1.9685
X3.4331Y-4.5079
X3.4335Y-4.1122
X3.435Y-3.0484
X3.4524Y-4.4504
X3.4579Y-2.5236
X3.463Y-4.5244
X3.4634Y-4.0205
X3.4646Y-2.4606
X3.4646Y-2.8543
X3.4646Y-3.2283
X3.4657Y-4.5028
X3.4681Y-2.0205
X3.4744Y-2.4213
X3.4744Y-3.2874
X3.4744Y-4.4823
X3.476Y-2.4996
X3.4799Y-3.1433
X3.4843Y-1.7028
X3.4843Y-2.3917
X3.4866Y-2.9591
X3.4882Y-3.1669
X3.4925Y-4.4673
X3.4929Y-2.9807
X3.4996Y-1.7567
X3.5004Y-3.7996
X3.5039Y-2.4213
X3.5039Y-2.815
X3.5051Y-4.1173
X3.5055Y-1.8161
X3.5138Y-2.8543
X3.5138Y-3.6906
X3.5154Y-4.4657
X3.5173Y-2.9795
X3.5197Y-4.0256
X3.5228Y-3.7819
X3.5236Y-1.2205
X3.5236Y-2.5689
X3.528Y-3.7472
X3.5287Y-3.824
X3.5311Y-4.4461
X3.5335Y-1.9882
X3.5335Y-2.5295
X3.5346Y-3.7004
X3.5354Y-2.1181
X3.537Y-4.1138
X3.5378Y-3.7661
X3.5398Y-2.0563
X3.5417Y-2.963
X3.5433Y-2.7854
X3.5433Y-3.2874
X3.5433Y-4.0264
X3.5441Y-3.8071
X3.5453Y-3.839
X3.5504Y-4.4409
X3.5511Y-4.0461
X3.5528Y-3.2402
X3.5531Y-1.7028
X3.5583Y-2.978
X3.5587Y-3.7232
X3.563Y-2.815
X3.565Y-3.848
X3.5701Y-4.4413
X3.572Y-4.0232
X3.5752Y-2.9614
X3.5764Y-3.7394
X3.578Y-3.7094
X3.5827Y-2.0669
X3.5874Y-4.1067
X3.5909Y-2.9787
X3.5996Y-3.1555
X3.6008Y-4.0157
X3.6075Y-2.9622
X3.6122Y-1.7815
X3.6177Y-3.1701
X3.6228Y-2.9791
X3.6272Y-3.2224
X3.6291Y-1.6906
X3.6295Y-4.3079
X3.6299Y-1.6457
X3.6303Y-4.2083
X3.6303Y-4.287
X3.6317Y-3.2002
X3.637Y-3.024
X3.6386Y-2.9622
X3.6417Y-1.2205
X3.6433Y-4.0657
X3.6453Y-4.3933
X3.6516Y-1.8307
X3.652Y-1.7047
X3.6571Y-4.137
X3.6583Y-2.9776
X3.6587Y-1.6496
X3.6614Y-1.189
X3.6614Y-4.0791
X3.6622Y-2.002
X3.6661Y-4.3449
X3.6697Y-4.3669
X3.6713Y-1.7421
X3.6724Y-2.963
X3.6803Y-4.1898
X3.6811Y-1.6748
X3.6811Y-1.7815
X3.6815Y-4.2476
X3.685Y-3.9976
X3.687Y-1.998
X3.6906Y-4.3264
X3.6917Y-2.9791
X3.6949Y-4.2673
X3.6961Y-4.3004
X3.6969Y-1.6583
X3.6992Y-4.2287
X3.6996Y-4.0189
X3.7079Y-2.9634
X3.7106Y-1.8307
X3.7165Y-1.3031
X3.7236Y-2.9764
X3.7248Y-1.7165
X3.7303Y-4.8622
X3.7303Y-4.9213
X3.7386Y-3.2823
X3.7406Y-3.1134
X3.7598Y-1.7323
X3.7638Y-1.5669
X3.7717Y-3.3232
X3.7894Y-1.2205
X3.7894Y-1.7717
X3.7894Y-1.8307
X3.7992Y-1.4862
X3.7992Y-2.1063
X3.8091Y-1.2205
X3.8307Y-1.2362
X3.8382Y-1.6394
X3.8386Y-4.8622
X3.8386Y-4.9213
X3.8425Y-4.1728
X3.8484Y-4.7343
X3.8504Y-4.0063
X3.8504Y-4.1933
X3.8705Y-4.2732
X3.8724Y-3.9169
X3.8736Y-4.0783
X3.874Y-1.6732
X3.8748Y-4.1378
X3.8776Y-3.9551
X3.878Y-1.752
X3.8878Y-1.2205
X3.8976Y-4.7343
X3.9075Y-4.8622
X3.9075Y-4.9213
X3.9075Y-5.0394
X3.9173Y-1.7224
X3.9173Y-1.8209
X3.9173Y-1.9193
X3.9469Y-1.2205
X3.9665Y-3.8976
X3.9665Y-3.9469
X3.9665Y-4.0059
X3.9665Y-4.0748
X3.9665Y-4.1535
X3.9665Y-4.2028
X3.9665Y-4.252
X3.9665Y-4.311
X3.9665Y-4.3898
X3.9665Y-4.4488
X3.9665Y-4.5079
X3.9764Y-4.6555
X3.9862Y-3.5827
X4.0059Y-1.2205
X4.0157Y-1.5945
X4.0256Y-3.5335
X4.0256Y-4.5669
X4.0256Y-4.626
X4.0256Y-4.7736
X4.0256Y-4.8622
X4.0256Y-4.9213
X4.0354Y-3.6417
X4.0551Y-3.1201
X4.0551Y-3.1594
X4.0551Y-4.7244
X4.065Y-1.2205
X4.0709Y-2.063
X4.0748Y-3.2874
X4.0846Y-3.9469
X4.0846Y-4.0059
X4.0846Y-4.065
X4.0846Y-4.1535
X4.0846Y-4.2028
X4.0846Y-4.311
X4.0846Y-4.3898
X4.0945Y-3.1594
X4.0945Y-3.6713
X4.0945Y-4.498
X4.0992Y-1.2386
X4.1043Y-3.2677
X4.1079Y-2.8677
X4.1132Y-4.7736
X4.1134Y-1.2244
X4.1142Y-4.626
X4.1142Y-4.8563
X4.124Y-4.5472
X4.1272Y-5.0106
X4.1307Y-2.824
X4.1339Y-1.2303
X4.1425Y-2.8969
X4.1437Y-3.7303
X4.1437Y-4.5866
X4.1535Y-3.2677
X4.1557Y-3.0818
X4.1575Y-1.2382
X4.1665Y-3.1598
X4.1717Y-1.224
X4.1732Y-3.6713
X4.1732Y-3.9469
X4.1732Y-4.0059
X4.1732Y-4.065
X4.1732Y-4.1535
X4.1732Y-4.2028
X4.1732Y-4.311
X4.1732Y-4.3701
X4.1732Y-4.439
X4.1732Y-4.5472
X4.1732Y-4.5866
X4.1811Y-3.1035
X4.1831Y-4.7244
X4.1831Y-4.7736
X4.1831Y-4.8524
X4.1831Y-4.9213
X4.1929Y-1.2402
X4.1929Y-3.2677
X4.1929Y-4.498
X4.1929Y-4.5177
X4.1969Y-2.8346
X4.2031Y-3.1469
X4.2126Y-4.6457
X4.2155Y-4.4558
X4.2193Y-1.2386
X4.2224Y-4.5472
X4.2224Y-4.813
X4.2224Y-4.8917
X4.2228Y-3.2142
X4.2291Y-3.1866
X4.2294Y-4.4419
X4.2323Y-3.3169
X4.2335Y-1.2244
X4.2402Y-2.7402
X4.2421Y-3.7303
X4.2421Y-4.0354
X4.2421Y-4.1535
X4.2421Y-4.311
X4.2421Y-4.3701
X4.2441Y-2.9094
X4.2453Y-2.6929
X4.2457Y-3.2614
X4.2484Y-2.8461
X4.2504Y-3.1331
X4.252Y-1.2402
X4.2618Y-1.9193
X4.2618Y-3.9075
X4.2618Y-4.5768
X4.2618Y-4.7244
X4.2618Y-4.7736
X4.2618Y-4.8524
X4.2618Y-4.9705
X4.2626Y-2.8602
X4.2679Y-2.7113
X4.2679Y-2.7314
X4.276Y-1.2559
X4.2795Y-1.9449
X4.2815Y-1.5059
X4.2823Y-1.6929
X4.2835Y-2.9764
X4.2902Y-1.2417
X4.2913Y-1.4567
X4.2913Y-3.2776
X4.2913Y-3.4449
X4.2913Y-3.4941
X4.2953Y-2.8268
X4.3Y-2.7486
X4.3Y-2.7687
X4.3012Y-1.2205
X4.3012Y-4.498
X4.3102Y-3.1358
X4.311Y-4.311
X4.311Y-4.3701
X4.311Y-4.4291
X4.311Y-4.9311
X4.3114Y-3.1953
X4.3146Y-2.8323
X4.3209Y-4.1339
X4.3209Y-4.5276
X4.3255Y-2.4806
X4.3267Y-2.5022
X4.3267Y-2.5222
X4.3268Y-2.7717
X4.3288Y-2.8181
X4.3303Y-3.1992
X4.3307Y-3.3563
X4.3307Y-4.5768
X4.3307Y-4.6457
X4.3307Y-4.7736
X4.3307Y-4.8602
X4.3307Y-4.8917
X4.3319Y-3.0478
X4.3319Y-3.0679
X4.3335Y-1.274
X4.3397Y-2.4664
X4.3402Y-2.5813
X4.3402Y-2.6014
X4.3406Y-4.065
X4.3441Y-3.152
X4.3477Y-1.2598
X4.3498Y-2.526
X4.3504Y-3.4941
X4.3504Y-4.498
X4.3591Y-4.239
X4.3602Y-1.2205
X4.3602Y-3.9173
X4.3602Y-4.9803
X4.3642Y-2.6156
X4.3642Y-2.6356
X4.3642Y-3.2154
X4.3677Y-3.1807
X4.3685Y-3.1496
X4.3699Y-2.526
X4.3713Y-2.735
X4.374Y-2.9764
X4.3748Y-2.7146
X4.3799Y-4.0256
X4.3799Y-4.3701
X4.3799Y-4.4291
X4.3827Y-4.9878
X4.3898Y-3.3169
X4.3925Y-1.2799
X4.3996Y-3.4449
X4.3996Y-4.7343
X4.3996Y-4.7933
X4.3996Y-4.8524
X4.3996Y-4.8917
X4.3996Y-4.9311
X4.4067Y-1.2657
X4.4083Y-2.7563
X4.4094Y-2.2835
X4.4094Y-2.378
X4.4094Y-2.5039
X4.4094Y-2.6299
X4.4094Y-2.6929
X4.4094Y-2.8189
X4.4094Y-3.0079
X4.4094Y-3.1339
X4.4094Y-3.2283
X4.4094Y-3.3563
X4.4118Y-2.6665
X4.4193Y-1.2205
X4.4193Y-1.9685
X4.4193Y-4.5276
X4.4275Y-1.3149
X4.4291Y-1.3976
X4.4291Y-1.4961
X4.4291Y-3.9862
X4.4299Y-2.175
X4.4299Y-2.1951
X4.439Y-3.8386
X4.439Y-4.1043
X4.4406Y-2.628
X4.4406Y-3.1953
X4.4413Y-3.1669
X4.4417Y-2.7551
X4.4417Y-2.8512
X4.4417Y-1.3291
X4.4429Y-2.5378
X4.4429Y-2.722
X4.4453Y-3.1339
X4.4496Y-2.9091
X4.4497Y-2.6644
X4.4555Y-1.5756
X4.4634Y-1.401
X4.4646Y-3.335
X4.4673Y-3.4425
X4.4685Y-1.7126
X4.4685Y-3.937
X4.4697Y-2.3764
X4.4697Y-2.2303
X4.4713Y-2.7539
X4.4716Y-2.4349
X4.4717Y-2.5343
X4.4717Y-2.7244
X4.472Y-2.3472
X4.472Y-3.1665
X4.4724Y-2.2843
X4.4724Y-2.3157
X4.4724Y-2.5646
X4.4728Y-2.4075
X4.4732Y-2.7886
X4.4736Y-3.1323
X4.474Y-2.2512
X4.4746Y-3.0057
X4.4748Y-3.1008
X4.4783Y-1.2205
X4.4807Y-2.6949
X4.4834Y-1.401
X4.485Y-2.9071
X4.4873Y-2.4489
X4.4873Y-2.469
X4.4882Y-4.3406
X4.4906Y-2.1618
X4.4941Y-2.198
X4.498Y-4.7343
X4.498Y-4.7933
X4.498Y-4.8524
X4.498Y-4.8917
X4.5008Y-2.3449
X4.5008Y-3.2594
X4.5016Y-2.8508
X4.5028Y-2.5673
X4.5028Y-3.1969
X4.5031Y-2.7228
X4.5035Y-2.3142
X4.5036Y-2.7822
X4.5038Y-2.6569
X4.5039Y-2.2835
X4.5039Y-2.378
X4.5039Y-2.5039
X4.5039Y-2.6299
X4.5039Y-2.6929
X4.5039Y-2.7571
X4.5039Y-2.8189
X4.5039Y-3.0079
X4.5039Y-3.1339
X4.5039Y-3.165
X4.5039Y-3.2283
X4.5043Y-2.9752
X4.5051Y-3.0386
X4.5051Y-3.1024
X4.5063Y-2.4441
X4.5079Y-3.8878
X4.5087Y-2.4661
X4.511Y-2.1644
X4.511Y-2.1844
X4.513Y-3.3134
X4.5177Y-1.939
X4.5177Y-3.4646
X4.5276Y-1.3976
X4.5276Y-1.6811
X4.5335Y-2.9472
X4.5339Y-2.85
X4.5346Y-2.6626
X4.5347Y-2.7596
X4.5354Y-2.5665
X4.5366Y-3.1969
X4.5366Y-3.2657
X4.537Y-2.4209
X4.5374Y-1.2205
X4.5374Y-3.8484
X4.5453Y-2.3591
X4.5469Y-2.6016
X4.5472Y-1.2992
X4.5472Y-3.7303
X4.5571Y-1.2205
X4.5601Y-2.6627
X4.5638Y-2.6366
X4.5654Y-2.2854
X4.5654Y-2.5937
X4.5654Y-2.726
X4.5657Y-2.7555
X4.5661Y-2.315
X4.5665Y-2.9457
X4.5669Y-1.3976
X4.5669Y-1.9193
X4.5669Y-1.9587
X4.5669Y-2.6945
X4.5669Y-3.1339
X4.5669Y-3.1654
X4.5669Y-3.1969
X4.5669Y-3.2283
X4.5669Y-3.2598
X4.5681Y-2.2535
X4.5685Y-2.5024
X4.5689Y-1.7307
X4.5693Y-2.7874
X4.5697Y-1.7539
X4.5768Y-3.4547
X4.5791Y-2.4764
X4.5866Y-3.3169
X4.5866Y-4.8917
X4.5954Y-2.5919
X4.598Y-2.4118
X4.5984Y-2.2843
X4.5984Y-3.1299
X4.5984Y-3.1654
X4.5984Y-3.1969
X4.5984Y-3.2283
X4.5988Y-2.9461
X4.5992Y-2.7563
X4.5996Y-2.3476
X4.6Y-2.3154
X4.6008Y-2.2535
X4.6008Y-2.3795
X4.6009Y-2.7272
X4.602Y-2.9126
X4.6024Y-2.7902
X4.6038Y-2.5173
X4.6052Y-2.618
X4.6063Y-3.6713
X4.6063Y-3.937
X4.6063Y-4.0157
X4.6063Y-4.124
X4.61Y-2.111
X4.611Y-2.678
X4.6138Y-2.7016
X4.6146Y-2.7433
X4.615Y-2.8138
X4.6161Y-3.3563
X4.6161Y-3.8484
X4.6173Y-2.7713
X4.6178Y-2.9744
X4.6299Y-2.2835
X4.6299Y-2.378
X4.6299Y-3.1024
X4.6299Y-3.1299
X4.6299Y-3.2283
X4.6303Y-2.315
X4.6311Y-2.3472
X4.6311Y-2.4098
X4.6319Y-2.2531
X4.6343Y-2.5815
X4.639Y-2.1039
X4.6492Y-2.9799
X4.6508Y-2.8815
X4.6528Y-2.9161
X4.6539Y-2.6299
X4.6551Y-2.5878
X4.6575Y-2.5373
X4.6577Y-2.8456
X4.6591Y-2.7925
X4.6594Y-2.7508
X4.6598Y-2.4075
X4.6598Y-2.5681
X4.6606Y-2.9421
X4.6614Y-3.1693
X4.6618Y-2.2843
X4.6622Y-2.7016
X4.6626Y-2.2524
X4.6626Y-2.3472
X4.6626Y-2.3783
X4.6634Y-2.3154
X4.6636Y-2.6697
X4.6752Y-2.2047
X4.6752Y-4.8917
X4.6811Y-2.0748
X4.6811Y-3.0551
X4.6811Y-3.1181
X4.685Y-1.5197
X4.685Y-1.7717
X4.685Y-1.9291
X4.685Y-1.9587
X4.689Y-1.7165
X4.6913Y-2.3465
X4.6929Y-2.3161
X4.6929Y-2.5685
X4.6929Y-3.1693
X4.6933Y-2.4102
X4.6933Y-2.8472
X4.6937Y-2.2835
X4.6941Y-2.3791
X4.6943Y-2.8819
X4.6945Y-2.2504
X4.6949Y-3.2677
X4.6953Y-2.626
X4.6961Y-2.9787
X4.6965Y-2.8114
X4.6965Y-2.9441
X4.6969Y-2.9094
X4.6976Y-2.5957
X4.698Y-2.7531
X4.7012Y-2.7854
X4.7047Y-1.4469
X4.7146Y-3.6713
X4.7146Y-3.7303
X4.7232Y-2.7276
X4.7242Y-2.7918
X4.7244Y-2.7524
X4.7244Y-3.0984
X4.7244Y-3.1673
X4.7244Y-3.1969
X4.7244Y-3.2283
X4.7246Y-2.6879
X4.7249Y-2.5674
X4.7256Y-2.598
X4.7256Y-2.976
X4.726Y-2.9449
X4.7268Y-2.6264
X4.7283Y-3.1339
X4.7295Y-2.8462
X4.7295Y-2.6581
X4.7322Y-2.8823
X4.7362Y-1.6732
X4.7366Y-2.0591
X4.7441Y-1.2205
X4.7441Y-3.3268
X4.748Y-1.5591
X4.7483Y-2.4057
X4.7508Y-1.7689
X4.7508Y-1.9496
X4.752Y-3.1654
X4.7539Y-2.9795
X4.7539Y-3.7008
X4.7547Y-2.3504
X4.7553Y-2.7276
X4.7555Y-2.9142
X4.7558Y-2.8458
X4.7559Y-2.2835
X4.7559Y-2.378
X4.7559Y-3.0945
X4.7563Y-2.2524
X4.7563Y-2.3157
X4.7563Y-2.7524
X4.7563Y-2.8181
X4.7567Y-2.6602
X4.7567Y-2.6906
X4.7575Y-2.5972
X4.7575Y-2.628
X4.7579Y-2.8756
X4.7579Y-2.9433
X4.7585Y-3.0714
X4.7638Y-1.2894
X4.7677Y-2.0965
X4.7736Y-1.5256
X4.7736Y-1.9094
X4.7736Y-2.5094
X4.7815Y-2.1476
X4.7835Y-3.1654
X4.7835Y-3.6713
X4.7835Y-3.7303
X4.7835Y-3.8681
X4.7858Y-2.3787
X4.7862Y-2.6291
X4.7862Y-2.9445
X4.7866Y-2.3146
X4.7866Y-2.6634
X4.787Y-2.2512
X4.7874Y-2.2839
X4.7874Y-3.2283
X4.7878Y-2.8185
X4.7886Y-2.4098
X4.789Y-2.9791
X4.7894Y-2.3488
X4.7894Y-2.6913
X4.7898Y-2.7878
X4.7901Y-2.9149
X4.7906Y-2.7217
X4.7913Y-2.7524
X4.7917Y-2.8791
X4.7923Y-2.5687
X4.7933Y-2.8476
X4.7933Y-3.3268
X4.8009Y-2.1067
X4.8031Y-3.9469
X4.8101Y-2.1236
X4.8106Y-1.9787
X4.8118Y-3.1661
X4.8128Y-3.2972
X4.815Y-3.0984
X4.815Y-3.1339
X4.8154Y-2.8787
X4.8157Y-2.8472
X4.8165Y-2.9142
X4.8169Y-3.1949
X4.8177Y-2.2508
X4.8181Y-2.9449
X4.8189Y-2.2835
X4.8189Y-2.378
X4.8189Y-2.6933
X4.8189Y-3.0689
X4.8189Y-3.2283
X4.8193Y-2.315
X4.8193Y-2.7209
X4.8193Y-2.8185
X4.8197Y-2.4091
X4.8197Y-2.7559
X4.8197Y-2.7858
X4.8209Y-2.3484
X4.8213Y-2.6287
X4.822Y-2.6602
X4.822Y-2.9776
X4.8236Y-2.0137
X4.8244Y-2.5957
X4.8252Y-1.9291
X4.8252Y-1.9921
X4.8268Y-2.4921
X4.8268Y-2.565
X4.8329Y-3.2972
X4.8346Y-3.0039
X4.8426Y-2.7872
X4.8476Y-2.6598
X4.8488Y-2.2496
X4.8492Y-2.722
X4.8496Y-2.4098
X4.85Y-2.2827
X4.85Y-2.6288
X4.8504Y-2.3465
X4.8504Y-2.3799
X4.8504Y-2.6921
X4.8504Y-2.8173
X4.8504Y-3.17
X4.8508Y-3.0713
X4.8516Y-2.5886
X4.852Y-2.3146
X4.852Y-2.913
X4.8524Y-2.9425
X4.8524Y-3.1024
X4.8524Y-3.9862
X4.8531Y-2.752
X4.8531Y-2.878
X4.8543Y-2.9752
X4.8543Y-3.1339
X4.8547Y-2.8476
X4.8622Y-1.2894
X4.8626Y-2.1181
X4.8661Y-2.4921
X4.872Y-1.4567
X4.872Y-1.7028
X4.872Y-1.939
X4.8768Y-2.1323
X4.878Y-2.8795
X4.8783Y-3.0961
X4.8787Y-2.8488
X4.8803Y-2.8193
X4.8819Y-2.5689
X4.8819Y-3.072
X4.8819Y-3.1299
X4.8819Y-3.3957
X4.8819Y-3.4547
X4.8819Y-3.17
X4.8827Y-2.9445
X4.8831Y-2.6886
X4.8846Y-2.6291
X4.8846Y-2.9122
X4.8846Y-2.9756
X4.8854Y-2.6606
X4.8917Y-1.5945
X4.8917Y-3.6713
X4.8917Y-3.7402
X4.8917Y-3.8484
X4.9016Y-1.2992
X4.9035Y-2.4941
X4.9083Y-2.1307
X4.9087Y-3.0972
X4.9091Y-2.6622
X4.9094Y-3.1339
X4.911Y-2.7539
X4.9113Y-2.6306
X4.9114Y-2.5689
X4.9122Y-2.7205
X4.9126Y-2.4106
X4.9126Y-2.9421
X4.9134Y-2.9772
X4.9134Y-3.1654
X4.9134Y-3.1969
X4.9134Y-3.2283
X4.9138Y-2.3492
X4.9138Y-2.8185
X4.9142Y-2.3157
X4.9142Y-2.6913
X4.9144Y-2.5904
X4.915Y-2.3799
X4.9154Y-2.25
X4.9154Y-2.2827
X4.9165Y-2.8472
X4.9177Y-2.8791
X4.9189Y-2.9126
X4.9197Y-2.0949
X4.9213Y-3.8976
X4.9225Y-2.1449
X4.924Y-3.0535
X4.9307Y-1.2228
X4.939Y-2.4961
X4.9421Y-2.913
X4.9429Y-2.8476
X4.9433Y-2.2846
X4.9433Y-2.315
X4.9437Y-3.0949
X4.9445Y-2.2512
X4.9445Y-2.8181
X4.9449Y-1.6664
X4.9449Y-2.378
X4.9449Y-2.4102
X4.9449Y-3.2283
X4.9457Y-2.3472
X4.9458Y-3.1688
X4.9461Y-2.6874
X4.9461Y-2.9398
X4.9465Y-2.5689
X4.9465Y-2.978
X4.947Y-2.6306
X4.9486Y-2.5941
X4.9487Y-2.8754
X4.9496Y-2.6594
X4.9508Y-1.2224
X4.9508Y-1.4567
X4.9508Y-3.8484
X4.9508Y-3.937
X4.9547Y-1.6299
X4.96Y-2.1376
X4.9606Y-1.3189
X4.9705Y-1.7421
X4.9705Y-2.7839
X4.9705Y-3.75
X4.9705Y-3.8976
X4.9719Y-2.6301
X4.9724Y-1.6457
X4.9728Y-2.7591
X4.9742Y-2.1518
X4.9752Y-3.0413
X4.9756Y-2.4098
X4.9756Y-2.6602
X4.9756Y-2.9791
X4.9764Y-2.3142
X4.9764Y-2.6917
X4.9764Y-3.1339
X4.9764Y-3.1654
X4.9768Y-2.3476
X4.9768Y-2.3783
X4.9768Y-2.7197
X4.9768Y-2.8217
X4.978Y-2.9437
X4.9787Y-2.252
X4.9791Y-2.2819
X4.9803Y-1.5748
X4.9803Y-2.9122
X4.9807Y-2.8803
X4.9815Y-2.8472
X4.9921Y-2.5118
X5.0Y-1.7126
X5.0Y-3.6811
X5.0055Y-2.2539
X5.0055Y-2.315
X5.0059Y-3.1661
X5.0059Y-3.2283
X5.0063Y-3.074
X5.0075Y-2.3469
X5.0075Y-3.1311
X5.0079Y-2.2835
X5.0079Y-2.378
X5.0079Y-3.1969
X5.0087Y-2.8807
X5.0087Y-3.0996
X5.0091Y-2.4091
X5.0091Y-2.7575
X5.0091Y-2.7846
X5.0091Y-2.9138
X5.0098Y-2.6921
X5.0098Y-2.9768
X5.0102Y-2.7197
X5.0102Y-2.8488
X5.0106Y-2.8213
X5.0107Y-2.5925
X5.011Y-2.6283
X5.011Y-2.9441
X5.0116Y-2.0252
X5.0153Y-2.66
X5.0197Y-1.2598
X5.0197Y-1.4567
X5.0197Y-3.937
X5.0283Y-2.4839
X5.0295Y-1.2205
X5.0295Y-1.3189
X5.0295Y-4.311
X5.0315Y-1.6811
X5.0317Y-2.0252
X5.037Y-2.6634
X5.0374Y-3.1638
X5.038Y-2.5699
X5.0386Y-2.6276
X5.0394Y-2.5925
X5.0394Y-3.2283
X5.0397Y-2.7192
X5.0406Y-2.9449
X5.0409Y-2.6996
X5.0409Y-2.9142
X5.042Y-2.7853
X5.0425Y-2.8213
X5.0425Y-2.8563
X5.0433Y-2.7587
X5.0492Y-3.8484
X5.0512Y-1.6654
X5.0591Y-1.811
X5.0614Y-2.9819
X5.0618Y-3.0157
X5.0665Y-3.1315
X5.0669Y-3.0984
X5.0689Y-4.2224
X5.0701Y-2.3472
X5.0705Y-2.378
X5.0705Y-2.411
X5.0709Y-3.0748
X5.0712Y-3.1696
X5.0713Y-2.5748
X5.0714Y-2.6607
X5.0715Y-2.6979
X5.072Y-2.6248
X5.0776Y-2.878
X5.0787Y-3.6909
X5.0787Y-3.937
X5.0886Y-1.2205
X5.0984Y-3.8484
X5.1Y-2.4118
X5.1008Y-3.1953
X5.1008Y-3.2264
X5.1012Y-2.3465
X5.1016Y-3.165
X5.102Y-2.3154
X5.1024Y-3.0709
X5.1024Y-3.1024
X5.1028Y-3.1362
X5.1031Y-2.3787
X5.1055Y-2.9555
X5.1055Y-2.9204
X5.1059Y-2.5516
X5.1063Y-2.828
X5.1067Y-2.8654
X5.1083Y-4.311
X5.1114Y-2.5823
X5.1122Y-1.8346
X5.1154Y-2.6445
X5.1157Y-2.7075
X5.1173Y-2.7417
X5.1181Y-3.7205
X5.1201Y-2.7717
X5.1209Y-3.3043
X5.1315Y-2.3169
X5.1323Y-3.1669
X5.1327Y-1.8469
X5.1327Y-3.1035
X5.1335Y-2.3476
X5.1335Y-3.2272
X5.1339Y-2.2835
X5.1339Y-2.378
X5.1339Y-2.4091
X5.1351Y-3.2901
X5.1378Y-3.937
X5.1378Y-4.0945
X5.1378Y-4.1535
X5.1378Y-4.2224
X5.1453Y-2.7878
X5.1476Y-1.2205
X5.1476Y-1.2795
X5.1476Y-1.9291
X5.1476Y-3.8484
X5.1476Y-4.0256
X5.1504Y-2.9386
X5.1508Y-2.8287
X5.1508Y-2.9776
X5.1512Y-3.0157
X5.152Y-2.9024
X5.1531Y-2.4815
X5.1543Y-2.5047
X5.1575Y-1.7717
X5.1575Y-4.311
X5.1622Y-2.411
X5.1634Y-2.348
X5.1634Y-3.1035
X5.1638Y-3.1665
X5.1642Y-2.3169
X5.165Y-2.8496
X5.1661Y-2.7232
X5.1673Y-2.7874
X5.1713Y-1.8282
X5.1732Y-1.715
X5.1742Y-1.6657
X5.1744Y-1.9539
X5.1744Y-1.9972
X5.1752Y-1.9752
X5.1772Y-3.6909
X5.187Y-2.0272
X5.1945Y-2.9102
X5.1953Y-3.1067
X5.1957Y-3.0079
X5.1961Y-2.7878
X5.1969Y-2.6614
X5.1969Y-2.6933
X5.1969Y-2.7248
X5.1969Y-3.937
X5.1972Y-2.7555
X5.1972Y-3.0394
X5.198Y-2.5669
X5.198Y-2.8504
X5.198Y-3.2272
X5.1988Y-2.6283
X5.1988Y-3.2591
X5.1996Y-3.698
X5.1996Y-3.1984
X5.2Y-3.1681
X5.2001Y-2.5366
X5.2004Y-2.9764
X5.2043Y-1.9878
X5.2067Y-1.2205
X5.2067Y-1.2697
X5.2067Y-1.5453
X5.2067Y-1.913
X5.2067Y-3.8484
X5.2067Y-4.0551
X5.2075Y-1.8906
X5.2138Y-3.6838
X5.2165Y-4.1437
X5.2165Y-4.2224
X5.2173Y-2.378
X5.2177Y-2.0571
X5.221Y-2.7859
X5.2224Y-2.1272
X5.2232Y-2.0232
X5.2244Y-2.0917
X5.2256Y-2.9772
X5.2256Y-2.5654
X5.2264Y-4.311
X5.2272Y-2.6941
X5.2276Y-2.5366
X5.2291Y-2.4701
X5.2303Y-2.9106
X5.2317Y-2.8483
X5.2339Y-1.8724
X5.2362Y-3.9764
X5.2374Y-2.0732
X5.2402Y-2.037
X5.2417Y-2.1055
X5.2421Y-2.6299
X5.2441Y-2.0051
X5.2559Y-3.6909
X5.2559Y-4.3602
X5.2575Y-2.4083
X5.2575Y-2.5661
X5.2583Y-2.7264
X5.2583Y-3.1323
X5.2587Y-2.913
X5.2587Y-3.1972
X5.259Y-2.7619
X5.2591Y-2.1303
X5.2591Y-2.8831
X5.2594Y-3.2602
X5.2598Y-2.2835
X5.2598Y-2.378
X5.2598Y-2.5039
X5.2598Y-2.6929
X5.2598Y-3.0079
X5.2598Y-3.1646
X5.2598Y-3.2276
X5.26Y-2.8233
X5.2602Y-2.4705
X5.2602Y-2.7854
X5.2602Y-2.852
X5.2602Y-3.1024
X5.2612Y-2.6644
X5.2627Y-2.3476
X5.2657Y-1.2205
X5.2657Y-3.878
X5.2677Y-1.6693
X5.2756Y-4.0256
X5.2756Y-4.0945
X5.2756Y-4.1437
X5.2756Y-4.4291
X5.2795Y-2.1394
X5.2878Y-2.8508
X5.289Y-2.6602
X5.2894Y-2.6945
X5.2902Y-3.1965
X5.2906Y-3.1039
X5.2909Y-2.3461
X5.2909Y-2.5031
X5.2913Y-2.3787
X5.2913Y-2.4091
X5.2913Y-2.5374
X5.2913Y-2.7547
X5.2913Y-3.1339
X5.2913Y-3.2283
X5.2913Y-3.2598
X5.2917Y-2.2839
X5.2917Y-2.5677
X5.2953Y-1.4567
X5.2953Y-2.4508
X5.2969Y-2.1276
X5.3047Y-3.302
X5.315Y-4.498
X5.3173Y-2.1217
X5.3185Y-2.3484
X5.3217Y-2.5047
X5.3217Y-2.7252
X5.3217Y-3.1031
X5.322Y-2.2835
X5.322Y-3.1358
X5.322Y-3.2272
X5.3224Y-2.378
X5.3224Y-3.1969
X5.3224Y-3.2594
X5.3228Y-2.5362
X5.3228Y-2.6614
X5.3232Y-2.8185
X5.3248Y-1.2205
X5.3248Y-3.9075
X5.3248Y-4.2815
X5.3346Y-3.6909
X5.3378Y-2.1217
X5.3378Y-3.2992
X5.3437Y-2.4709
X5.3445Y-3.9665
X5.3445Y-4.311
X5.3445Y-4.3898
X5.3474Y-1.6772
X5.3536Y-2.5407
X5.3543Y-2.2835
X5.3543Y-2.378
X5.3543Y-2.5039
X5.3543Y-2.8189
X5.3543Y-2.8819
X5.3543Y-3.0079
X5.3543Y-3.1339
X5.3543Y-3.1646
X5.3543Y-3.2283
X5.3543Y-3.8386
X5.3551Y-3.2602
X5.3571Y-2.137
X5.3642Y-4.0059
X5.3642Y-4.0551
X5.3642Y-4.0945
X5.374Y-4.2323
X5.3772Y-3.2346
X5.378Y-1.7441
X5.3783Y-3.2949
X5.3807Y-1.6732
X5.3839Y-1.2205
X5.3839Y-3.8583
X5.3839Y-4.1831
X5.3858Y-2.5673
X5.3858Y-3.163
X5.3874Y-3.135
X5.3874Y-3.1969
X5.4069Y-2.5833
X5.4106Y-2.5213
X5.4134Y-3.6909
X5.4134Y-4.3404
X5.4134Y-4.3604
X5.4214Y-2.5978
X5.4232Y-3.9075
X5.4232Y-3.9469
X5.4232Y-4.2323
X5.4232Y-4.4094
X5.4428Y-2.2126
X5.4429Y-1.2205
X5.45Y-3.3189
X5.4508Y-3.3453
X5.4512Y-3.2925
X5.4523Y-2.1958
X5.4528Y-3.9862
X5.4528Y-4.4882
X5.4547Y-3.4083
X5.4591Y-3.3642
X5.4598Y-3.3854
X5.4626Y-4.1043
X5.4626Y-4.311
X5.474Y-3.2917
X5.4783Y-3.2665
X5.4823Y-4.1437
X5.4823Y-4.2323
X5.4921Y-1.9783
X5.4921Y-2.9331
X5.502Y-1.2205
X5.502Y-2.4606
X5.5035Y-4.2695
X5.5035Y-4.2896
X5.5217Y-4.0354
X5.5217Y-4.1535
X5.5315Y-1.9783
X5.5315Y-2.4311
X5.5315Y-3.9272
X5.5315Y-4.3504
X5.5331Y-3.2437
X5.5413Y-1.7717
X5.5413Y-4.1888
X5.5413Y-4.2089
X5.5453Y-2.935
X5.5512Y-4.0748
X5.552Y-3.2661
X5.561Y-1.2205
X5.561Y-3.7008
X5.561Y-3.7894
X5.5689Y-1.7872
X5.5689Y-1.8073
X5.5689Y-3.302
X5.5709Y-2.6181
X5.5709Y-3.9764
X5.5709Y-4.2323
X5.5709Y-4.311
X5.5787Y-4.1081
X5.5787Y-4.1281
X5.5807Y-1.8799
X5.5807Y-4.1634
X5.5882Y-3.3134
X5.5906Y-1.7323
X5.6004Y-2.4311
X5.6004Y-3.0807
X5.6102Y-3.0028
X5.6201Y-1.2205
X5.6201Y-4.1535
X5.6201Y-4.3602
X5.6299Y-1.8307
X5.6299Y-1.9094
X5.6299Y-3.3071
X5.6299Y-3.7008
X5.6299Y-3.7894
X5.6299Y-3.8287
X5.6299Y-4.2717
X5.6398Y-1.6929
X5.6398Y-2.0276
X5.6398Y-2.4508
X5.6398Y-3.8976
X5.6496Y-3.5236
X5.6496Y-3.6417
X5.6555Y-2.1181
X5.6594Y-1.9783
X5.6594Y-3.1398
X5.6693Y-2.7559
X5.6693Y-4.0748
X5.6693Y-4.1732
X5.6693Y-4.4193
X5.6693Y-4.6457
X5.672Y-2.4505
X5.6756Y-1.2205
X5.6791Y-3.3071
X5.689Y-4.4587
X5.6988Y-1.2205
X5.6988Y-1.6043
X5.7087Y-3.7008
X5.7087Y-3.7894
X5.7087Y-3.8287
X5.7087Y-3.937
X5.7165Y-2.1201
X5.7185Y-4.2224
X5.7283Y-1.7087
X5.7283Y-2.4606
X5.7283Y-2.7362
X5.7283Y-2.815
X5.7283Y-3.5236
X5.7283Y-4.3701
X5.7382Y-4.4685
X5.748Y-1.9547
X5.7579Y-4.2618
X5.7602Y-2.115
X5.7677Y-1.2205
X5.7677Y-1.3189
X5.7677Y-2.8543
X5.7677Y-4.4094
X5.7874Y-2.0866
X5.7874Y-3.7008
X5.7874Y-3.7894
X5.7874Y-3.8287
X5.7874Y-4.4193
X5.7972Y-1.998
X5.7972Y-4.311
X5.8071Y-2.4606
X5.8169Y-2.815
X5.8169Y-3.563
X5.8169Y-3.8679
X5.8169Y-3.888
X5.8169Y-3.937
X5.8268Y-1.2205
X5.8268Y-2.9134
X5.8268Y-4.4685
X5.8366Y-3.5236
X5.8465Y-4.2323
X5.8563Y-4.1043
X5.8661Y-1.122
X5.8661Y-3.6319
X5.876Y-2.4606
X5.8858Y-2.126
X5.8858Y-2.7461
X5.8858Y-3.7008
X5.8858Y-3.7894
X5.8858Y-4.0551
X5.8957Y-4.1339
X5.8976Y-3.928
X5.9106Y-3.8252
X5.9252Y-2.7461
X5.9252Y-4.0551
X5.935Y-1.7126
X5.935Y-1.7913
X5.935Y-1.8406
X5.935Y-2.4606
X5.935Y-2.8051
X5.935Y-2.9823
X5.935Y-3.0217
X5.9449Y-2.874
X5.9449Y-4.2323
X5.9449Y-4.311
X5.9449Y-4.6457
X5.9646Y-2.7461
X5.9646Y-3.7008
X5.9646Y-4.4193
X5.9646Y-4.4685
X5.9685Y-3.7839
X5.9744Y-3.0217
X5.9827Y-3.7697
X5.9835Y-4.1114
X5.986Y-4.0382
X5.9941Y-2.126
X6.0039Y-1.122
X6.0039Y-2.4606
X6.0039Y-3.4449
X6.0138Y-2.7461
X6.0138Y-2.874
X6.0138Y-2.9823
X6.0138Y-3.0217
X6.033Y-4.0382
X6.0335Y-4.1339
X6.0433Y-1.8504
X6.0433Y-2.7461
X6.0433Y-4.2323
X6.0433Y-4.311
X6.0433Y-4.4193
X6.0469Y-1.8087
X6.0531Y-3.0217
X6.063Y-2.4606
X6.063Y-4.1043
X6.065Y-3.9571
X6.0657Y-3.9366
X6.0728Y-3.4449
X6.0728Y-3.6713
X6.0728Y-4.1437
X6.0776Y-1.628
X6.0827Y-2.126
X6.0827Y-2.7461
X6.0827Y-3.0512
X6.0925Y-2.874
X6.0984Y-4.1949
X6.1024Y-4.1142
X6.1122Y-2.4606
X6.1122Y-2.8051
X6.1122Y-2.9823
X6.1122Y-3.0709
X6.113Y-3.8343
X6.1146Y-1.6945
X6.1201Y-4.4142
X6.122Y-1.8504
X6.1256Y-4.0921
X6.1307Y-4.0638
X6.1319Y-2.7461
X6.1319Y-3.4449
X6.1417Y-4.2323
X6.1417Y-4.311
X6.1516Y-2.126
X6.1516Y-3.1102
X6.1516Y-4.1634
X6.1535Y-4.063
X6.1594Y-3.8374
X6.1614Y-2.4606
X6.1744Y-3.8236
X6.1811Y-1.2382
X6.1811Y-2.7461
X6.1811Y-2.874
X6.1811Y-4.1043
X6.1909Y-1.8504
X6.1909Y-2.126
X6.1913Y-4.0634
X6.2008Y-3.0709
X6.2008Y-3.1201
X6.2008Y-3.4449
X6.2008Y-4.1634
X6.2012Y-3.8374
X6.2106Y-2.4606
X6.2106Y-2.9823
X6.2205Y-2.7461
X6.2205Y-2.8051
X6.2205Y-3.4941
X6.2228Y-3.837
X6.2272Y-1.7783
X6.2303Y-4.311
X6.2323Y-1.2402
X6.239Y-3.1535
X6.2402Y-4.5571
X6.2413Y-1.1366
X6.2413Y-2.6449
X6.2441Y-2.6654
X6.2496Y-2.485
X6.2504Y-2.4654
X6.2551Y-3.3984
X6.2598Y-2.6098
X6.2598Y-3.4449
X6.2598Y-3.8484
X6.2614Y-2.4476
X6.2697Y-2.874
X6.2697Y-3.5433
X6.2776Y-3.0969
X6.2795Y-1.6142
X6.2835Y-1.2421
X6.2866Y-1.2614
X6.2874Y-1.7335
X6.2898Y-3.8969
X6.2902Y-3.9567
X6.2929Y-2.7213
X6.2961Y-3.3535
X6.2992Y-2.126
X6.2992Y-2.7559
X6.2992Y-2.8051
X6.2992Y-2.9823
X6.2992Y-4.3701
X6.2992Y-4.4193
X6.3029Y-2.4786
X6.3031Y-4.1067
X6.3071Y-3.0961
X6.3091Y-1.8504
X6.311Y-3.3984
X6.3189Y-3.4449
X6.3189Y-3.5925
X6.3228Y-1.278
X6.3264Y-2.4799
X6.3268Y-4.1323
X6.3272Y-2.4179
X6.3276Y-3.2873
X6.3287Y-2.6732
X6.3287Y-4.1634
X6.3287Y-4.2323
X6.3327Y-1.2421
X6.3386Y-2.7165
X6.3386Y-4.0689
X6.3406Y-3.0941
X6.3425Y-2.6008
X6.3447Y-2.4098
X6.3484Y-4.311
X6.3547Y-2.5157
X6.3583Y-1.2331
X6.3583Y-2.7559
X6.3589Y-4.1559
X6.3594Y-1.6827
X6.3594Y-3.1402
X6.3614Y-1.285
X6.3681Y-2.874
X6.374Y-2.4091
X6.374Y-2.6031
X6.3748Y-3.0949
X6.3748Y-3.3957
X6.378Y-2.9823
X6.378Y-4.4193
X6.3783Y-4.0008
X6.3789Y-4.1559
X6.3795Y-2.5193
X6.3799Y-1.2421
X6.3807Y-3.9791
X6.3839Y-3.4311
X6.3878Y-2.8051
X6.3882Y-3.1394
X6.3902Y-2.7157
X6.3909Y-3.2783
X6.3913Y-2.6386
X6.3917Y-2.4496
X6.3937Y-2.5335
X6.3957Y-3.2016
X6.3972Y-2.6012
X6.3976Y-2.126
X6.3976Y-3.4646
X6.3976Y-3.5433
X6.3976Y-3.5925
X6.4051Y-2.4126
X6.4063Y-3.0933
X6.4076Y-3.3978
X6.4087Y-2.7028
X6.4091Y-1.2362
X6.412Y-4.148
X6.413Y-1.6102
X6.4177Y-2.637
X6.4193Y-1.8445
X6.4214Y-3.3312
X6.4228Y-2.4504
X6.4228Y-2.4791
X6.424Y-3.1753
X6.4248Y-3.1382
X6.4248Y-3.4512
X6.4272Y-3.7303
X6.4321Y-4.148
X6.4331Y-1.2402
X6.4366Y-3.1031
X6.4382Y-2.4106
X6.4449Y-1.8031
X6.4459Y-3.2705
X6.4469Y-4.065
X6.4469Y-4.124
X6.4497Y-3.5027
X6.4526Y-3.3312
X6.4528Y-2.5122
X6.4535Y-2.4815
X6.4535Y-3.1724
X6.4539Y-2.6685
X6.4556Y-3.1403
X6.4559Y-2.6366
X6.4567Y-1.1362
X6.4567Y-2.8051
X6.4567Y-2.9823
X6.4575Y-2.7051
X6.4594Y-1.261
X6.4654Y-3.3965
X6.4659Y-3.2705
X6.4665Y-2.126
X6.4665Y-3.0512
X6.4665Y-3.5925
X6.4681Y-3.1028
X6.4685Y-2.5586
X6.4689Y-3.5036
X6.4709Y-2.4091
X6.4764Y-2.874
X6.4767Y-2.7046
X6.4811Y-2.4528
X6.4823Y-3.3287
X6.4827Y-2.5728
X6.4833Y-1.24
X6.4835Y-3.1402
X6.4835Y-3.2961
X6.4846Y-2.6378
X6.485Y-3.1709
X6.4862Y-2.5154
X6.487Y-2.478
X6.4872Y-3.4132
X6.4882Y-3.5031
X6.4961Y-3.7303
X6.4961Y-4.3701
X6.4961Y-4.5571
X6.4992Y-1.7299
X6.4996Y-2.4083
X6.4996Y-2.5988
X6.4996Y-3.1028
X6.5Y-3.3988
X6.5004Y-2.7059
X6.5004Y-3.2087
X6.5051Y-2.761
X6.5059Y-2.5492
X6.5059Y-3.5925
X6.5079Y-3.5031
X6.5134Y-1.6181
X6.5138Y-1.7984
X6.5157Y-3.3268
X6.5211Y-2.5298
X6.5256Y-2.126
X6.5303Y-1.2402
X6.5335Y-3.2571
X6.5354Y-1.3091
X6.5356Y-2.5442
X6.5437Y-3.3567
X6.5444Y-2.6363
X6.5453Y-4.124
X6.5453Y-4.4193
X6.5461Y-3.3264
X6.5472Y-2.6713
X6.5488Y-2.6059
X6.5488Y-3.5055
X6.5539Y-3.2571
X6.5551Y-3.5925
X6.5573Y-2.4152
X6.5635Y-3.3978
X6.5646Y-1.2701
X6.5646Y-3.1004
X6.5646Y-3.0472
X6.565Y-1.6114
X6.565Y-4.1634
X6.5685Y-3.5063
X6.5693Y-2.7024
X6.5713Y-2.572
X6.5729Y-2.3911
X6.5765Y-2.5482
X6.5776Y-3.3571
X6.578Y-2.6075
X6.5795Y-2.7224
X6.5795Y-3.3252
X6.582Y-2.4814
X6.5827Y-2.5299
X6.5834Y-3.1378
X6.5846Y-4.0354
X6.5898Y-3.5059
X6.5929Y-3.2902
X6.5945Y-2.126
X6.5945Y-3.5925
X6.5945Y-3.7303
X6.5953Y-3.2047
X6.6043Y-1.2697
X6.6043Y-1.3091
X6.609Y-3.5051
X6.6096Y-3.3264
X6.6098Y-2.6379
X6.6178Y-2.7336
X6.6205Y-3.272
X6.6234Y-2.4161
X6.624Y-3.6319
X6.6339Y-4.4193
X6.6362Y-1.6118
X6.639Y-3.3276
X6.6402Y-3.3585
X6.6406Y-2.639
X6.6413Y-2.6055
X6.6413Y-3.0567
X6.6417Y-3.2917
X6.6425Y-1.6598
X6.6448Y-2.5433
X6.648Y-3.5055
X6.6535Y-3.5925
X6.6579Y-2.5181
X6.6583Y-3.2035
X6.6649Y-2.4029
X6.6672Y-3.1669
X6.6697Y-3.5047
X6.671Y-3.0965
X6.672Y-3.3264
X6.6724Y-2.4795
X6.6732Y-1.1319
X6.6732Y-1.2402
X6.6732Y-4.0354
X6.6735Y-2.7029
X6.6744Y-3.2957
X6.6744Y-3.3587
X6.6748Y-2.6362
X6.6752Y-2.6055
X6.6827Y-2.8827
X6.6831Y-2.126
X6.6878Y-3.3949
X6.6882Y-2.5413
X6.6886Y-2.5209
X6.6889Y-3.5035
X6.6908Y-2.4137
X6.6917Y-3.2047
X6.6929Y-3.5925
X6.6929Y-4.1634
X6.6969Y-2.6043
X6.7016Y-3.2921
X6.702Y-3.3567
X6.7043Y-3.3276
X6.7047Y-3.1709
X6.7051Y-2.6374
X6.7087Y-2.5484
X6.7094Y-3.5055
X6.7138Y-2.8827
X6.716Y-2.7636
X6.7172Y-2.7106
X6.7205Y-2.4047
X6.7224Y-3.7303
X6.7227Y-2.5316
X6.7298Y-2.6016
X6.7346Y-3.3276
X6.7358Y-3.1409
X6.7358Y-3.202
X6.7362Y-3.1039
X6.7366Y-2.6374
X6.7366Y-3.2969
X6.739Y-3.1669
X6.7421Y-2.126
X6.7481Y-3.0888
X6.7508Y-1.8016
X6.752Y-2.5197
X6.752Y-3.4941
X6.752Y-3.5433
X6.752Y-3.6024
X6.752Y-4.5571
X6.7608Y-2.4091
X6.7618Y-2.4795
X6.772Y-3.311
X6.774Y-3.1772
X6.7879Y-2.6866
X6.7879Y-2.7319
X6.7894Y-3.374
X6.7988Y-2.626
X6.8012Y-4.4193
X6.811Y-2.126
X6.811Y-2.3031
X6.811Y-4.0354
X6.811Y-4.1535
X6.8209Y-2.8051
X6.8307Y-2.2638
X6.8307Y-2.3228
X6.8307Y-4.3012
X6.8465Y-2.3827
X6.8602Y-2.4803
X6.8602Y-2.5394
X6.8602Y-2.5984
X6.8602Y-2.6673
X6.8602Y-2.7362
X6.8602Y-2.8248
X6.8602Y-3.3071
X6.8602Y-3.4055
X6.8689Y-1.6551
X6.8701Y-2.126
X6.8898Y-4.4193
X6.898Y-3.248
X6.9024Y-2.9984
X6.9024Y-3.0189
X6.9028Y-3.0394
X6.9028Y-3.0606
X6.9055Y-3.2657
X6.9067Y-3.1031
X6.9067Y-3.2079
X6.9071Y-3.1228
X6.9075Y-3.1429
X6.9079Y-3.1626
X6.9083Y-3.2283
X6.9193Y-4.0354
X6.9193Y-4.1535
X6.9244Y-1.6874
X6.9425Y-2.1079
X6.9488Y-2.2638
X6.9488Y-2.3425
X6.9488Y-2.4409
X6.9488Y-2.874
X6.9488Y-3.4055
X6.9626Y-1.8071
X6.9685Y-1.6185
X6.9685Y-2.5098
X6.9685Y-2.5591
X6.9685Y-2.628
X6.9685Y-2.7067
X6.9685Y-2.8346
X6.9783Y-2.126
X6.998Y-3.0118
X6.998Y-3.0512
X6.998Y-3.1102
X6.998Y-3.1496
X6.998Y-3.2185
X6.998Y-3.2579
X7.0079Y-4.5571
X7.0177Y-4.0354
X7.0177Y-4.1535
X7.0374Y-2.9823
X7.0374Y-3.0807
X7.0374Y-3.189
X7.0374Y-3.3169
X7.0374Y-3.376
X7.0571Y-4.4193
X7.0669Y-2.4803
X7.0669Y-2.5394
X7.0669Y-2.5984
X7.0669Y-2.6673
X7.0669Y-2.7362
X7.0669Y-2.8248
X7.1031Y-2.1075
X7.1063Y-1.8701
X7.1063Y-1.8937
X7.1083Y-1.8071
X7.1083Y-1.9213
X7.1091Y-1.6496
X7.1102Y-1.8445
X7.1161Y-4.1535
X7.1161Y-4.3012
X7.126Y-4.0354
X7.1358Y-2.5098
X7.1358Y-2.5591
X7.1358Y-2.628
X7.1358Y-2.7067
X7.1358Y-2.7756
X7.1417Y-1.6492
X7.1457Y-1.5846
X7.1457Y-4.4193
X7.1563Y-1.4642
X7.1917Y-1.8028
X7.1949Y-4.0354
X7.2047Y-4.1142
X7.2114Y-2.1899
X7.2158Y-4.6051
X7.2224Y-1.5724
X7.2252Y-2.4752
X7.2327Y-2.4957
X7.2441Y-1.6043
X7.2441Y-2.5295
X7.2559Y-4.5102
X7.2638Y-2.6673
X7.2642Y-2.452
X7.2835Y-2.5689
X7.2835Y-3.0413
X7.2906Y-2.4051
X7.2925Y-3.476
X7.2929Y-3.6496
X7.2969Y-2.2941
X7.2996Y-2.3618
X7.3031Y-4.3012
X7.3043Y-2.3142
X7.3106Y-2.026
X7.313Y-3.4768
X7.3138Y-2.4142
X7.3138Y-3.6496
X7.3157Y-2.337
X7.3161Y-2.3839
X7.3224Y-2.448
X7.3228Y-2.6083
X7.3228Y-2.6673
X7.324Y-4.4134
X7.3327Y-2.4664
X7.3425Y-1.6453
X7.3461Y-3.661
X7.3484Y-1.5768
X7.3543Y-1.811
X7.3622Y-3.4154
X7.3917Y-3.002
X7.3917Y-3.0512
X7.3917Y-3.1004
X7.3917Y-3.1496
X7.3917Y-3.1988
X7.3953Y-1.4646
X7.4004Y-4.4004
X7.4016Y-4.2224
X7.4114Y-2.5295
X7.4114Y-2.6083
X7.4114Y-2.6673
X7.4114Y-2.7362
X7.4114Y-4.3012
X7.413Y-2.0874
X7.4406Y-2.9109
X7.4409Y-3.002
X7.4409Y-3.0512
X7.4409Y-3.1004
X7.4409Y-3.4154
X7.4508Y-3.1496
X7.4508Y-3.1988
X7.4508Y-3.4646
X7.4508Y-3.5039
X7.4606Y-1.5453
X7.4606Y-2.7362
X7.4654Y-4.2693
X7.4803Y-2.5591
X7.4803Y-2.6378
X7.4803Y-3.4646
X7.4803Y-4.4587
X7.4886Y-2.776
X7.5Y-3.5039
X7.5098Y-2.5984
X7.5098Y-3.002
X7.5098Y-3.0512
X7.5098Y-3.1004
X7.5197Y-2.6673
X7.5295Y-1.5157
X7.5394Y-4.4587
X7.5661Y-4.298
X7.5886Y-2.5591
X7.5886Y-2.6181
X7.5886Y-2.7067
X7.5886Y-3.1594
X7.5886Y-3.2874
X7.5886Y-3.3661
X7.5886Y-3.4449
X7.5902Y-2.7472
X7.6051Y-4.0248
X7.6181Y-2.0874
X7.6181Y-4.311
X7.6181Y-4.4193
X7.6366Y-2.7461
X7.637Y-2.7913
X7.6378Y-2.5591
X7.6378Y-2.5886
X7.6575Y-4.4882
X7.6673Y-1.5059
X7.687Y-2.687
X7.687Y-3.1398
X7.6941Y-2.4594
X7.6969Y-2.5591
X7.6969Y-2.5886
X7.6969Y-2.9921
X7.6969Y-4.311
X7.6969Y-4.4193
X7.7067Y-1.4567
X7.7264Y-4.4882
X7.7559Y-3.3169
X7.7559Y-3.3563
X7.7559Y-3.4449
X7.7642Y-2.8299
X7.7756Y-1.437
X7.7756Y-2.4606
X7.7756Y-2.5689
X7.7756Y-4.311
X7.7756Y-4.4193
X7.7953Y-2.5984
X7.7953Y-2.8543
X7.7953Y-2.9134
X7.7953Y-2.9921
X7.7953Y-3.0512
X7.7953Y-3.2972
X7.7957Y-3.0854
X7.8051Y-2.4803
X7.8051Y-2.7657
X7.8051Y-3.2579
X7.8051Y-4.6555
X7.8248Y-1.3878
X7.8346Y-4.4193
X7.8445Y-4.1732
X7.8445Y-4.311
X7.8642Y-4.6161
X7.8642Y-4.6555
X7.874Y-2.4606
X7.874Y-4.4193
X7.8839Y-1.3287
X7.8839Y-2.5098
X7.8839Y-3.3858
X7.8839Y-3.6024
X7.8839Y-3.6417
X7.8839Y-3.6811
X7.8937Y-3.0413
X7.8937Y-3.0906
X7.8937Y-3.1496
X7.8937Y-3.2087
X7.9035Y-3.4055
X7.9134Y-2.6476
X7.9134Y-2.687
X7.9134Y-2.9921
X7.9161Y-2.0882
X7.9232Y-2.7461
X7.9232Y-3.4547
X7.9232Y-4.6161
X7.9232Y-4.6555
X7.9276Y-2.9539
X7.9331Y-3.0413
X7.9331Y-3.0906
X7.9331Y-3.1299
X7.9331Y-4.1732
X7.9331Y-4.498
X7.9429Y-3.1988
X7.9429Y-3.5433
X7.9429Y-4.0551
X7.9528Y-2.5098
X7.9528Y-4.3701
X7.9528Y-4.4193
X7.9626Y-4.6555
X7.9709Y-2.4602
X7.9724Y-3.1496
X7.9823Y-3.1988
X7.9823Y-4.4882
X8.002Y-2.4606
X8.002Y-3.1496
X8.002Y-3.4547
X8.002Y-3.5433
X8.002Y-4.3406
X8.002Y-4.6555
X8.0217Y-3.1988
X8.0315Y-2.5098
X8.0315Y-2.6673
X8.0315Y-2.7461
X8.0413Y-3.1496
X8.0413Y-4.5571
X8.0512Y-3.5433
X8.0512Y-3.6043
X8.0512Y-3.6417
X8.0709Y-3.4547
X8.0807Y-2.4606
X8.0807Y-3.6614
X8.0906Y-3.4154
X8.1004Y-3.0906
X8.1004Y-3.5433
X8.1102Y-2.5098
X8.1102Y-4.4882
X8.1201Y-4.0256
X8.1398Y-2.6575
X8.1398Y-2.7067
X8.1398Y-3.0709
X8.1398Y-3.1594
X8.1398Y-3.5433
X8.1429Y-4.5575
X8.1496Y-2.4606
X8.1496Y-3.9961
X8.1496Y-4.1339
X8.1693Y-2.6083
X8.1693Y-4.6555
X8.1791Y-3.1201
X8.1791Y-3.6811
X8.1791Y-4.4882
X8.1791Y-4.5571
X8.189Y-2.5098
X8.189Y-3.1693
X8.189Y-3.4646
X8.1988Y-2.6575
X8.1988Y-3.585
X8.1988Y-3.9567
X8.1988Y-4.0945
X8.1988Y-4.2126
X8.2087Y-3.1201
X8.2087Y-3.7106
X8.2087Y-4.0354
X8.2185Y-3.0906
X8.2185Y-3.6811
X8.2185Y-3.8583
X8.2185Y-3.9173
X8.2283Y-2.4606
X8.2283Y-2.6083
X8.2283Y-3.8091
X8.2283Y-4.6555
X8.2382Y-2.6575
X8.2433Y-3.1496
X8.248Y-3.4646
X8.248Y-3.5925
X8.248Y-4.0059
X8.248Y-4.5571
X8.248Y-4.6161
X8.2579Y-2.3031
X8.2579Y-2.5098
X8.2579Y-3.061
X8.2677Y-3.4154
X8.2677Y-3.7697
X8.2776Y-4.6555
X8.2874Y-2.6083
X8.2874Y-3.3169
X8.2874Y-3.3661
X8.3071Y-2.4606
X8.3071Y-2.5098
X8.3071Y-2.5394
X8.3071Y-2.9429
X8.3071Y-3.061
X8.3169Y-3.5925
X8.3268Y-3.4646
X8.3268Y-4.2028
X8.3366Y-4.6555
X8.3465Y-2.3031
X8.3465Y-3.3169
X8.3563Y-2.6378
X8.3563Y-2.6772
X8.3563Y-3.1102
X8.3661Y-3.1398
X8.3661Y-3.2185
X8.3661Y-3.2677
X8.3661Y-3.4154
X8.3858Y-2.5394
X8.3957Y-3.5039
X8.3957Y-3.7303
X8.3957Y-4.6555
X8.3972Y-2.5876
X8.3972Y-2.6077
X8.4055Y-2.6378
X8.4055Y-2.6772
X8.4252Y-2.5689
X8.4449Y-2.3031
X8.4449Y-4.6555
X8.4524Y-2.5744
X8.4547Y-3.7303
X8.4646Y-2.6181
X8.4646Y-2.6772
X8.4646Y-2.7461
X8.4646Y-2.8248
X8.4646Y-2.8937
X8.4646Y-2.9528
X8.4646Y-3.0709
X8.4646Y-3.1201
X8.4646Y-3.1693
X8.4646Y-3.2283
X8.4783Y-2.5681
X8.4941Y-2.3917
X8.5039Y-3.1693
X8.5075Y-2.5638
X8.5138Y-4.6555
X8.5335Y-2.4409
X8.5335Y-2.6772
X8.5335Y-4.0354
X8.5339Y-2.5638
X8.5531Y-3.1693
X8.5657Y-3.1228
X8.5799Y-3.137
X8.5807Y-2.6551
X8.5827Y-4.6555
X8.5831Y-3.2577
X8.5831Y-3.2778
X8.5925Y-2.3031
X8.5925Y-2.4902
X8.5925Y-3.1693
X8.6024Y-3.7402
X8.6024Y-3.878
X8.6024Y-4.0354
X8.6075Y-2.6496
X8.6299Y-3.1453
X8.6339Y-2.5583
X8.6362Y-2.6492
X8.6417Y-4.3406
X8.6516Y-2.2343
X8.6516Y-2.3622
X8.6516Y-4.6555
X8.6524Y-2.5126
X8.6638Y-2.4913
X8.6669Y-2.5374
X8.6713Y-3.7402
X8.6713Y-3.878
X8.6811Y-4.0354
X8.6811Y-4.124
X8.6811Y-4.311
X8.6811Y-4.3406
X8.687Y-2.5555
X8.6909Y-2.185
X8.6909Y-3.6024
X8.7008Y-3.5531
X8.7008Y-3.7106
X8.7016Y-2.465
X8.7087Y-3.3858
X8.7087Y-3.4331
X8.7093Y-3.3228
X8.7205Y-2.2343
X8.7205Y-2.3228
X8.7205Y-2.4213
X8.7205Y-3.6417
X8.7205Y-4.6555
X8.7244Y-3.4882
X8.7293Y-3.3228
X8.7307Y-2.3925
X8.7697Y-4.1535
X8.7697Y-4.2126
X8.7697Y-4.252
X8.7697Y-4.3012
X8.7697Y-4.3406
X8.7795Y-2.185
X8.7795Y-3.0906
X8.7795Y-3.4882
X8.7795Y-3.6713
X8.7795Y-3.7008
X8.7874Y-3.3701
X8.7874Y-3.4331
X8.7894Y-2.3925
X8.7992Y-2.5
X8.7992Y-3.189
X8.8035Y-3.2543
X8.8118Y-3.1327
X8.8189Y-2.2835
X8.8189Y-2.3524
X8.8189Y-2.4213
X8.8189Y-4.6555
X8.822Y-3.2925
X8.826Y-3.1469
X8.8272Y-2.6969
X8.8287Y-2.5492
X8.8484Y-2.4705
X8.8484Y-3.376
X8.8484Y-3.4331
X8.8484Y-3.5138
X8.8583Y-3.1988
X8.8673Y-2.1459
X8.8673Y-2.1659
X8.878Y-2.3031
X8.878Y-2.3425
X8.878Y-2.5197
X8.8878Y-2.4213
X8.8976Y-2.185
X8.8976Y-2.2441
X8.8976Y-4.6555
X8.9272Y-4.1142
X8.9272Y-4.1831
X8.9272Y-4.2323
X8.9272Y-4.2815
X8.9272Y-4.3209
X8.9272Y-4.3701
X8.9272Y-4.4291
X8.9272Y-4.5472
X8.9272Y-4.5965
X8.9291Y-3.2874
X8.935Y-2.6791
X8.9433Y-3.3016
X8.9764Y-3.5925
X8.9764Y-3.6811
X8.9764Y-3.7402
X8.9764Y-3.8386
X8.9764Y-3.937
X8.989Y-2.4535
X8.9961Y-2.5098
X8.9961Y-2.5492
X9.0032Y-2.4677
X9.0059Y-3.1398
X9.0059Y-3.3071
X9.0256Y-3.1988
X9.0382Y-3.4378
X9.0453Y-2.4114
X9.0524Y-3.452
X9.0551Y-2.3228
X9.0551Y-3.248
X9.0555Y-2.6787
X9.065Y-2.4114
X9.065Y-2.5492
X9.065Y-3.5236
X9.0713Y-3.3384
X9.0713Y-3.3585
X9.0846Y-3.1201
X9.0945Y-3.2972
X9.1041Y-2.1949
X9.1232Y-3.1126
X9.124Y-3.4646
X9.1242Y-2.1949
X9.1331Y-2.6937
X9.1339Y-3.1594
X9.1437Y-3.0866
X9.163Y-3.0949
X9.1732Y-3.3957
X9.1732Y-3.5236
X9.1831Y-3.1594
X9.1831Y-3.1988
X9.1831Y-3.2579
X9.1831Y-3.3169
X9.1835Y-3.0862
X9.2039Y-3.0874
X9.2232Y-3.0886
X9.2323Y-2.3031
X9.2323Y-2.3425
X9.252Y-3.1594
X9.252Y-3.1988
X9.252Y-3.2579
X9.252Y-3.3169
X9.252Y-3.3957
X9.252Y-3.4646
X9.252Y-3.5236
X9.3504Y-3.1594
X2.5787Y-3.4843
X2.5787Y-3.5236
X2.5787Y-3.563
X2.5787Y-3.6024
X2.5787Y-3.6417
X2.5787Y-3.6811
X2.5787Y-3.7205
X2.5787Y-3.7598
X2.6181Y-3.4843
X2.6181Y-3.5236
X2.6181Y-3.563
X2.6181Y-3.6024
X2.6181Y-3.6417
X2.6181Y-3.6811
X2.6181Y-3.7205
X2.6181Y-3.7598
X2.6575Y-3.4843
X2.6575Y-3.5236
X2.6575Y-3.563
X2.6575Y-3.6024
X2.6575Y-3.6417
X2.6575Y-3.6811
X2.6575Y-3.7205
X2.6575Y-3.7598
X2.6969Y-3.4843
X2.6969Y-3.5236
X2.6969Y-3.563
X2.6969Y-3.6024
X2.6969Y-3.6417
X2.6969Y-3.6811
X2.6969Y-3.7205
X2.6969Y-3.7598
X2.7362Y-3.4843
X2.7362Y-3.5236
X2.7362Y-3.563
X2.7362Y-3.6024
X2.7362Y-3.6417
X2.7362Y-3.6811
X2.7362Y-3.7205
X2.7362Y-3.7598
X2.7756Y-3.4843
X2.7756Y-3.5236
X2.7756Y-3.563
X2.7756Y-3.6024
X2.7756Y-3.6417
X2.7756Y-3.6811
X2.7756Y-3.7205
X2.7756Y-3.7598
X2.815Y-3.4843
X2.815Y-3.5236
X2.815Y-3.563
X2.815Y-3.6024
X2.815Y-3.6417
X2.815Y-3.6811
X2.815Y-3.7205
X2.815Y-3.7598
X2.8543Y-3.4843
X2.8543Y-3.5236
X2.8543Y-3.563
X2.8543Y-3.6024
X2.8543Y-3.6417
X2.8543Y-3.6811
X2.8543Y-3.7205
X2.8543Y-3.7598
T2
X1.6142Y-0.9843
X1.6142Y-1.063
X1.6142Y-1.1417
X1.6142Y-1.2205
X1.6142Y-1.2992
X1.6142Y-1.378
X1.6142Y-1.4567
X1.6142Y-1.5354
X1.6142Y-1.6142
X1.6142Y-1.6929
X1.6142Y-2.4016
X1.6142Y-2.4803
X1.6142Y-2.5591
X1.6142Y-2.6378
X1.6142Y-2.7165
X1.6142Y-2.7953
X1.6142Y-2.874
X1.6142Y-2.9528
X1.6142Y-3.0315
X1.6142Y-3.1102
X1.6142Y-3.189
X1.6142Y-3.2677
X1.6142Y-3.3465
X1.6142Y-3.4252
X1.6142Y-3.5039
X1.6142Y-3.5827
X1.6142Y-3.6614
X1.6142Y-3.7402
X1.6142Y-3.8189
X1.6142Y-3.8976
X1.6142Y-3.9764
X1.6142Y-4.0551
X1.6142Y-4.1339
X1.6142Y-4.2126
X1.6142Y-4.2913
X1.6142Y-4.3701
X1.6142Y-4.4488
X1.6142Y-4.5276
X1.6142Y-4.6063
X1.6142Y-4.685
X1.6142Y-4.7638
X1.6142Y-4.8425
X1.6142Y-4.9213
X1.6142Y-5.0
X1.6142Y-5.0787
X1.6929Y-5.0787
X1.7323Y-0.9843
X1.7717Y-5.0787
X1.811Y-0.9843
X1.8504Y-5.0787
X1.8898Y-0.9843
X1.9291Y-5.0787
X1.9685Y-0.9843
X1.9839Y-1.9894
X1.9874Y-2.089
X2.0079Y-5.0787
X2.0472Y-0.9843
X2.0866Y-5.0787
X2.126Y-0.9843
X2.126Y-4.7638
X2.126Y-4.8425
X2.126Y-4.9213
X2.126Y-5.0
X2.126Y-5.0787
X2.2047Y-0.9843
X2.2047Y-4.7638
X2.2835Y-0.9843
X2.2835Y-4.7638
X2.3228Y-1.6142
X2.339Y-3.4925
X2.3622Y-4.7638
X2.4016Y-0.9843
X2.428Y-1.7441
X2.4362Y-3.4803
X2.4406Y-3.7106
X2.4409Y-1.4173
X2.4409Y-4.7638
X2.4803Y-0.9843
X2.4803Y-1.2992
X2.4953Y-4.037
X2.5197Y-4.7638
X2.5591Y-0.9843
X2.5591Y-1.2598
X2.5689Y-2.4016
X2.5699Y-3.8927
X2.5984Y-4.7638
X2.6378Y-0.9843
X2.6539Y-3.0941
X2.6665Y-3.3413
X2.6772Y-4.7638
X2.7165Y-0.9843
X2.7461Y-2.8642
X2.7461Y-2.9134
X2.7559Y-4.7638
X2.7756Y-2.5098
X2.7953Y-0.9843
X2.7953Y-2.8642
X2.7953Y-2.9134
X2.7953Y-2.9528
X2.8248Y-3.3461
X2.8346Y-4.7638
X2.8445Y-2.8642
X2.8445Y-2.9134
X2.8445Y-2.9528
X2.874Y-0.9843
X2.9Y-3.3547
X2.9134Y-4.7638
X2.9528Y-0.9843
X2.9528Y-4.8425
X2.9528Y-4.9213
X2.9528Y-5.0
X2.9528Y-5.0787
X2.961Y-4.6768
X2.9933Y-4.4996
X3.0315Y-0.9843
X3.0315Y-5.0787
X3.0331Y-4.1945
X3.1039Y-4.4752
X3.1102Y-0.9843
X3.1102Y-5.0787
X3.1496Y-4.7638
X3.1496Y-4.8425
X3.1496Y-4.9213
X3.1496Y-5.0
X3.1496Y-5.0787
X3.189Y-0.9843
X3.2283Y-4.7638
X3.2677Y-0.9843
X3.3071Y-4.7638
X3.315Y-2.5496
X3.3465Y-0.9843
X3.3601Y-2.4547
X3.3734Y-4.4522
X3.4154Y-4.2028
X3.4154Y-4.2421
X3.4154Y-4.2815
X3.4154Y-4.3209
X3.4252Y-0.9843
X3.4409Y-4.6457
X3.4646Y-4.2028
X3.4646Y-4.2421
X3.4646Y-4.2815
X3.4646Y-4.3209
X3.5Y-5.0748
X3.5039Y-0.9843
X3.5138Y-4.2028
X3.5138Y-4.2421
X3.5138Y-4.2815
X3.5138Y-4.3209
X3.5138Y-4.3602
X3.5433Y-4.8819
X3.5433Y-5.0
X3.5531Y-4.7244
X3.5752Y-3.922
X3.5827Y-0.9843
X3.6181Y-5.0748
X3.6614Y-0.9843
X3.6614Y-4.8819
X3.6614Y-5.0
X3.7402Y-0.9843
X3.7402Y-4.7244
X3.8189Y-0.9843
X3.8189Y-4.735
X3.8937Y-5.0752
X3.8976Y-0.9843
X3.9764Y-0.9843
X4.0354Y-5.0354
X4.0551Y-0.9843
X4.1299Y-5.0748
X4.1339Y-0.9843
X4.2126Y-0.9843
X4.2283Y-5.0354
X4.2913Y-0.9843
X4.3228Y-5.0394
X4.3661Y-5.0752
X4.3701Y-0.9843
X4.4055Y-5.0752
X4.4449Y-5.0748
X4.4488Y-0.9843
X4.4843Y-5.0748
X4.5236Y-5.0748
X4.5276Y-0.9843
X4.563Y-5.0748
X4.6063Y-0.9843
X4.6181Y-5.0591
X4.6358Y-3.3858
X4.6772Y-3.4626
X4.6811Y-5.0752
X4.685Y-0.9843
X4.7244Y-4.7638
X4.7638Y-0.9843
X4.8031Y-4.7638
X4.811Y-3.3799
X4.815Y-3.4429
X4.8425Y-0.9843
X4.8819Y-4.7638
X4.885Y-3.3528
X4.9213Y-0.9843
X4.9606Y-4.7638
X5.0Y-0.9843
X5.0394Y-1.5748
X5.0394Y-4.7638
X5.1181Y-4.7638
X5.1969Y-4.7638
X5.2756Y-4.7638
X5.3031Y-1.6457
X5.3543Y-4.7638
X5.3909Y-2.1346
X5.4114Y-3.4748
X5.4331Y-4.7638
X5.4559Y-3.4417
X5.4618Y-3.5354
X5.4657Y-3.5984
X5.4921Y-1.8307
X5.4929Y-4.4071
X5.5118Y-4.7638
X5.5374Y-2.1161
X5.5906Y-4.7638
X5.5953Y-3.4724
X5.5961Y-3.5346
X5.6016Y-3.6004
X5.6031Y-3.4098
X5.6299Y-0.9843
X5.6693Y-4.7638
X5.7087Y-0.9843
X5.7087Y-1.6437
X5.748Y-4.7638
X5.7874Y-0.9843
X5.8051Y-3.9748
X5.8268Y-4.7638
X5.8417Y-4.0748
X5.8661Y-0.9843
X5.9055Y-1.6732
X5.9055Y-4.7638
X5.9449Y-0.9843
X5.9843Y-4.7638
X6.0236Y-0.9843
X6.063Y-4.7638
X6.0646Y-3.8323
X6.0728Y-3.7567
X6.1024Y-0.9843
X6.1417Y-3.9075
X6.1417Y-3.9862
X6.1417Y-4.7638
X6.1811Y-3.9469
X6.2205Y-3.9075
X6.2205Y-3.9862
X6.2205Y-4.7638
X6.2992Y-4.7638
X6.378Y-4.7638
X6.4134Y-4.0425
X6.4567Y-4.7638
X6.489Y-3.9437
X6.5071Y-4.2906
X6.5075Y-4.1358
X6.5354Y-4.7638
X6.5421Y-4.0524
X6.5579Y-4.2268
X6.6142Y-0.9843
X6.6142Y-4.7638
X6.626Y-3.9783
X6.626Y-4.2146
X6.6929Y-0.9843
X6.6929Y-4.7638
X6.7071Y-4.0382
X6.7449Y-4.2831
X6.7717Y-0.9843
X6.7717Y-4.7638
X6.7953Y-3.4144
X6.8504Y-0.9843
X6.8504Y-4.7638
X6.8504Y-4.8425
X6.8504Y-4.9213
X6.8504Y-5.0
X6.8504Y-5.0787
X6.8504Y-5.1575
X6.9291Y-0.9843
X6.9291Y-5.1575
X7.0079Y-0.9843
X7.0079Y-4.7638
X7.0079Y-4.8425
X7.0079Y-4.9213
X7.0079Y-4.9606
X7.0079Y-5.1575
X7.0472Y-5.0
X7.0866Y-0.9843
X7.0866Y-4.7638
X7.0866Y-5.0394
X7.0866Y-5.1575
X7.1614Y-3.6142
X7.1654Y-0.9843
X7.1654Y-4.7638
X7.1654Y-5.0394
X7.1654Y-5.1575
X7.2047Y-5.0394
X7.2047Y-5.1181
X7.2441Y-0.9843
X7.2441Y-4.7638
X7.2441Y-5.0787
X7.2835Y-4.124
X7.3031Y-3.563
X7.3228Y-0.9843
X7.3228Y-1.9291
X7.3228Y-4.7638
X7.3917Y-3.564
X7.3976Y-3.6083
X7.4016Y-0.9843
X7.4016Y-2.7953
X7.4016Y-4.7638
X7.4028Y-3.252
X7.4311Y-4.1535
X7.4705Y-2.7953
X7.4803Y-0.9843
X7.4803Y-1.6142
X7.4803Y-1.7717
X7.4803Y-4.7638
X7.4807Y-3.2547
X7.4872Y-3.622
X7.4945Y-3.1496
X7.5187Y-3.5551
X7.5591Y-0.9843
X7.5591Y-1.9291
X7.5591Y-3.6614
X7.5591Y-4.7638
X7.585Y-3.1992
X7.5886Y-4.6457
X7.6083Y-4.0551
X7.6083Y-4.0846
X7.6378Y-0.9843
X7.6378Y-4.7638
X7.6619Y-3.2357
X7.7165Y-0.9843
X7.7165Y-4.7638
X7.7264Y-3.8878
X7.7264Y-3.9272
X7.7264Y-3.9665
X7.7264Y-4.0059
X7.7264Y-4.0453
X7.7264Y-4.0846
X7.7555Y-3.2906
X7.7559Y-1.7717
X7.7559Y-1.9291
X7.7756Y-3.8878
X7.7756Y-3.9272
X7.7756Y-3.9665
X7.7756Y-4.0059
X7.7756Y-4.0453
X7.7756Y-4.0846
X7.7953Y-0.9843
X7.7953Y-4.7638
X7.8248Y-3.8878
X7.8248Y-3.9272
X7.8248Y-3.9665
X7.8248Y-4.0059
X7.8248Y-4.0453
X7.8248Y-4.0846
X7.8346Y-1.6142
X7.874Y-0.9843
X7.874Y-4.7638
X7.9528Y-0.9843
X7.9528Y-1.9291
X7.9528Y-3.2547
X7.9528Y-4.7638
X8.0307Y-3.2567
X8.0315Y-0.9843
X8.0315Y-4.0945
X8.0315Y-4.7638
X8.0709Y-2.6673
X8.1102Y-0.9843
X8.1102Y-1.9291
X8.1102Y-4.7638
X8.1366Y-3.1988
X8.1386Y-2.7461
X8.189Y-0.9843
X8.189Y-4.7638
X8.2154Y-3.2429
X8.2157Y-2.7831
X8.2402Y-3.8394
X8.2677Y-0.9843
X8.2677Y-4.7638
X8.3067Y-2.8366
X8.3071Y-3.2835
X8.3465Y-0.9843
X8.3465Y-4.7638
X8.4252Y-0.9843
X8.4252Y-1.9291
X8.4252Y-4.7638
X8.4626Y-3.011
X8.5039Y-0.9843
X8.5039Y-2.1654
X8.5039Y-4.7638
X8.5638Y-2.6917
X8.5732Y-2.9787
X8.5827Y-0.9843
X8.5827Y-4.7638
X8.6016Y-2.6941
X8.6327Y-2.9807
X8.6614Y-0.9843
X8.6614Y-1.9291
X8.6614Y-4.7638
X8.6909Y-3.1004
X8.7402Y-0.9843
X8.7402Y-4.7638
X8.75Y-2.9795
X8.7795Y-3.5531
X8.8091Y-2.9783
X8.8189Y-0.9843
X8.8189Y-4.7638
X8.8854Y-2.9823
X8.8976Y-0.9843
X8.8976Y-4.7638
X8.9272Y-3.1004
X8.9764Y-0.9843
X8.9764Y-4.7638
X8.9969Y-3.0965
X9.0551Y-0.9843
X9.0551Y-4.7638
X9.1339Y-0.9843
X9.1339Y-4.7638
X9.2126Y-0.9843
X9.2126Y-4.7638
X9.2291Y-3.1209
X9.2539Y-2.6854
X9.2906Y-2.6854
X9.2913Y-0.9843
X9.2913Y-4.7638
X9.322Y-3.1028
X9.3445Y-2.9362
X9.3701Y-0.9843
X9.3701Y-4.7638
X9.3882Y-3.013
X9.4094Y-1.0236
X9.4094Y-1.1024
X9.4094Y-1.1811
X9.4094Y-1.2598
X9.4094Y-1.3386
X9.4094Y-1.4173
X9.4094Y-1.4961
X9.4094Y-1.5748
X9.4094Y-1.6535
X9.4094Y-1.7323
X9.4094Y-1.811
X9.4094Y-1.8898
X9.4094Y-1.9685
X9.4094Y-2.0472
X9.4094Y-2.126
X9.4094Y-2.2047
X9.4094Y-2.2835
X9.4094Y-2.3622
X9.4094Y-2.4409
X9.4094Y-2.5197
X9.4094Y-2.5984
X9.4094Y-2.6772
X9.4094Y-2.7559
X9.4094Y-2.8346
X9.4094Y-2.9134
X9.4094Y-3.0709
X9.4094Y-3.1496
X9.4094Y-3.2283
X9.4094Y-3.3071
X9.4094Y-3.3858
X9.4094Y-3.4646
X9.4094Y-3.5433
X9.4094Y-3.622
X9.4094Y-3.7008
X9.4094Y-3.7795
X9.4094Y-3.8583
X9.4094Y-3.937
X9.4094Y-4.0157
X9.4094Y-4.0945
X9.4094Y-4.1732
X9.4094Y-4.252
X9.4094Y-4.3307
X9.4094Y-4.4094
X9.4094Y-4.4882
X9.4094Y-4.5669
X9.4094Y-4.6457
X9.4094Y-4.7244
T3
X2.1937Y-2.8547
X3.4449Y-1.2402
X3.5236Y-1.2795
X3.5728Y-1.2205
X3.6909Y-1.2795
X4.0728Y-3.5433
X4.0748Y-3.4055
X4.2776Y-3.5433
X4.2795Y-3.4055
X4.937Y-3.3228
X4.9685Y-3.4665
X5.0591Y-3.3228
X5.065Y-3.4646
X5.2008Y-3.3228
X5.2185Y-3.6004
X5.3701Y-3.4764
X5.4232Y-3.5433
X5.689Y-1.3091
X5.7972Y-1.2992
X5.8661Y-1.2303
X5.9252Y-1.6142
X6.3976Y-3.6417
X6.8307Y-3.4843
X6.8602Y-2.9331
X6.9587Y-3.4843
X7.0276Y-2.9331
X7.0571Y-3.563
X7.0571Y-3.6909
X7.2244Y-3.6909
X7.2638Y-3.6909
X7.8051Y-3.1594
X7.8248Y-2.7165
X7.9331Y-2.7978
X7.9429Y-3.9173
X8.0315Y-2.7978
X8.0413Y-3.8804
X8.0906Y-3.8386
X8.3563Y-3.1693
X8.376Y-2.7165
X8.4055Y-3.6614
X8.6909Y-3.6614
X8.7106Y-3.8386
X8.9272Y-4.0157
T4
X3.3819Y-4.7953
X3.4213Y-4.8346
X3.4646Y-4.7953
X3.689Y-1.2283
X3.811Y-1.2677
X4.6063Y-4.5669
X4.6693Y-4.5669
X5.2756Y-4.5472
X5.9449Y-1.2303
X6.0925Y-1.1909
X6.7421Y-4.1437
X6.8406Y-3.9469
X6.8898Y-2.2835
X6.8898Y-2.4409
X7.1555Y-2.8346
X7.2441Y-4.0157
X7.2933Y-4.0157
X7.4606Y-2.5197
X7.4902Y-3.4154
X7.9528Y-3.4055
X8.0315Y-3.4055
X8.1614Y-4.3819
X8.3563Y-4.1535
X8.3661Y-4.252
T5
X5.748Y-3.6024
X7.1457Y-2.9528
X7.2835Y-2.7559
X7.7756Y-3.6024
X5.748Y-3.4449
X8.0906Y-2.5787
X7.2835Y-3.1693
X7.9921Y-3.0512
T6
X2.6148Y-4.1951
X2.6148Y-4.2751
X2.6148Y-4.3551
X2.6148Y-4.4351
X2.6148Y-4.5151
X2.6148Y-4.5951
X2.7148Y-4.1551
X2.7148Y-4.2351
X2.7148Y-4.3151
X2.7148Y-4.4751
X2.7148Y-4.5551
X2.7148Y-4.6351
T8
X7.5996Y-4.1693
X6.7717Y-1.1205
X6.7717Y-1.2205
X6.8717Y-1.1205
X6.8717Y-1.2205
X6.9717Y-1.1205
X6.9717Y-1.2205
X7.0717Y-1.1205
X7.0717Y-1.2205
X7.1717Y-1.1205
X7.1717Y-1.2205
X7.2717Y-1.1205
X7.2717Y-1.2205
X7.3717Y-1.1205
X7.3717Y-1.2205
X7.4717Y-1.1205
X7.4717Y-1.2205
X7.5717Y-1.1205
X7.5717Y-1.2205
X7.6717Y-1.1205
X7.6717Y-1.2205
X7.7717Y-1.1205
X7.7717Y-1.2205
X7.8717Y-1.1205
X7.8717Y-1.2205
X7.9717Y-1.1205
X7.9717Y-1.2205
X8.0717Y-1.1205
X8.0717Y-1.2205
X8.1717Y-1.1205
X8.1717Y-1.2205
X3.4827Y-3.4646
X3.5827Y-3.4646
X3.1646Y-2.0866
X3.2646Y-2.0866
X3.3646Y-2.0866
X3.4646Y-2.0866
X8.5728Y-3.3366
X8.5728Y-3.4366
X8.5728Y-3.5366
X3.1654Y-2.2307
X3.1654Y-2.3307
X3.2654Y-2.2307
X3.2654Y-2.3307
X3.3654Y-2.2307
X3.3654Y-2.3307
X3.4654Y-2.2307
X3.4654Y-2.3307
X3.1614Y-1.9291
X3.2614Y-1.9291
X3.3614Y-1.9291
X3.4614Y-1.9291
X3.5614Y-1.9291
X3.6614Y-1.9291
X4.8394Y-4.0748
X4.9394Y-4.0748
X5.0394Y-4.0748
T9
X2.8148Y-4.1551
X2.8148Y-4.2551
X2.8148Y-4.5351
X2.8148Y-4.6351
T10
X1.8898Y-4.0776
X1.8898Y-4.7126
T11
X1.9547Y-2.4606
X1.9547Y-2.9783
T12
X1.8799Y-4.9429
X1.8819Y-1.5827
T13
X9.1339Y-3.7008
X8.1102Y-1.6142
T3
X1.6559Y-1.8626G85X1.6323Y-1.8626
G05
X1.6559Y-2.2161G85X1.6323Y-2.2161
G05
X1.8902Y-1.8768G85X1.8665Y-1.8768
G05
X1.8902Y-2.202G85X1.8665Y-2.202
G05
T7
X1.7433Y-3.2736G85X1.7118Y-3.2736
G05
X1.7433Y-3.8445G85X1.7118Y-3.8445
G05
X1.9976Y-3.2736G85X1.9268Y-3.2736
G05
X1.9976Y-3.8445G85X1.9268Y-3.8445
G05
T8
X9.0551Y-4.5079G85X9.0551Y-4.4291
G05
X9.2126Y-4.2835G85X9.1339Y-4.2835
G05
X9.2913Y-4.5079G85X9.2913Y-4.4291
G05
T0
M30
