G04 #@! TF.GenerationSoftware,KiCad,Pcbnew,5.1.0*
G04 #@! TF.CreationDate,2019-04-09T12:59:12+01:00*
G04 #@! TF.ProjectId,ecp5_mainboard,65637035-5f6d-4616-996e-626f6172642e,rev?*
G04 #@! TF.SameCoordinates,Original*
G04 #@! TF.FileFunction,Profile,NP*
%FSLAX46Y46*%
G04 Gerber Fmt 4.6, Leading zero omitted, Abs format (unit mm)*
G04 Created by KiCad (PCBNEW 5.1.0) date 2019-04-09 12:59:12*
%MOMM*%
%LPD*%
G04 APERTURE LIST*
%ADD10C,0.150000*%
G04 APERTURE END LIST*
D10*
X198300000Y-122150000D02*
X240250000Y-122150000D01*
X240250000Y-23750000D02*
X240250000Y-122150000D01*
X198300000Y-23750000D02*
X240250000Y-23750000D01*
X98350000Y-127450000D02*
G75*
G03X96450000Y-127450000I-950000J0D01*
G01*
X98350000Y-127450000D02*
X98350000Y-134900000D01*
X96450000Y-134900000D02*
X86000000Y-134900000D01*
X96450000Y-127450000D02*
X96450000Y-134900000D01*
X98350000Y-134900000D02*
X119550000Y-134900000D01*
X119550000Y-134900000D02*
X119550000Y-128200000D01*
X85250000Y-134900000D02*
X85250000Y-128930000D01*
X85250000Y-134900000D02*
X86000000Y-134900000D01*
X96600000Y-23750000D02*
X198300000Y-23750000D01*
X85250000Y-123975000D02*
G75*
G03X81600000Y-123975000I-1825000J0D01*
G01*
X85250000Y-123975000D02*
X85250000Y-128930000D01*
X81600000Y-130400000D02*
X81000000Y-130400000D01*
X81600000Y-128600000D02*
X81600000Y-130400000D01*
X81600000Y-123975000D02*
X81600000Y-128600000D01*
X81000000Y-130400000D02*
X73600000Y-130400000D01*
X73600000Y-23750000D02*
X96600000Y-23750000D01*
X40250000Y-130400000D02*
X40250000Y-24750000D01*
X55250000Y-130400000D02*
X40250000Y-130400000D01*
X55250000Y-122150000D02*
X55250000Y-130400000D01*
X73600000Y-122150000D02*
X55250000Y-122150000D01*
X73600000Y-130400000D02*
X73600000Y-122150000D01*
X40250000Y-23750000D02*
X73600000Y-23750000D01*
X40250000Y-24750000D02*
X40250000Y-23750000D01*
X119550000Y-122150000D02*
X169550000Y-122150000D01*
X119550000Y-128200000D02*
X119550000Y-122150000D01*
X169550000Y-122150000D02*
X172300000Y-122150000D01*
X172300000Y-122150000D02*
X172300000Y-126950000D01*
X185000000Y-129520000D02*
X185000000Y-126950000D01*
X172800000Y-131950000D02*
X183610000Y-131950000D01*
X172300000Y-126950000D02*
X172300000Y-131450000D01*
X181050000Y-122150000D02*
X198300000Y-122150000D01*
X179300000Y-125200000D02*
X179300000Y-123900000D01*
X185000000Y-126950000D02*
X181050000Y-126950000D01*
X172800000Y-131950000D02*
X172300000Y-131450000D01*
X183610000Y-131950000D02*
X185000000Y-129520000D01*
X179300000Y-123900000D02*
G75*
G02X181050000Y-122150000I1750000J0D01*
G01*
X181050000Y-126950000D02*
G75*
G02X179300000Y-125200000I0J1750000D01*
G01*
M02*
